  0
SECTION
  2
HEADER
  9
$ACADVER
  1
AC1027
  9
$ACADMAINTVER
 70
   125
  9
$DWGCODEPAGE
  3
ANSI_1252
  9
$LASTSAVEDBY
  1
camil
  9
$REQUIREDVERSIONS
160
                 0
  9
$INSBASE
 10
0.0
 20
0.0
 30
0.0
  9
$EXTMIN
 10
-3.962788444359884
 20
-15.10608803649006
 30
0.0
  9
$EXTMAX
 10
5.644513129537004
 20
3.963304592441605
 30
0.0
  9
$LIMMIN
 10
0.0
 20
0.0
  9
$LIMMAX
 10
12.0
 20
9.0
  9
$ORTHOMODE
 70
     0
  9
$REGENMODE
 70
     1
  9
$FILLMODE
 70
     1
  9
$QTEXTMODE
 70
     0
  9
$MIRRTEXT
 70
     0
  9
$LTSCALE
 40
1.0
  9
$ATTMODE
 70
     1
  9
$TEXTSIZE
 40
0.2
  9
$TRACEWID
 40
0.05
  9
$TEXTSTYLE
  7
STANDARD
  9
$CLAYER
  8
0
  9
$CELTYPE
  6
Continuous
  9
$CECOLOR
 62
   256
  9
$CELTSCALE
 40
1.0
  9
$DISPSILH
 70
     0
  9
$DIMSCALE
 40
1.0
  9
$DIMASZ
 40
0.18
  9
$DIMEXO
 40
0.0625
  9
$DIMDLI
 40
0.38
  9
$DIMRND
 40
0.0
  9
$DIMDLE
 40
0.0
  9
$DIMEXE
 40
0.18
  9
$DIMTP
 40
0.0
  9
$DIMTM
 40
0.0
  9
$DIMTXT
 40
0.18
  9
$DIMCEN
 40
0.09
  9
$DIMTSZ
 40
0.0
  9
$DIMTOL
 70
     0
  9
$DIMLIM
 70
     0
  9
$DIMTIH
 70
     1
  9
$DIMTOH
 70
     1
  9
$DIMSE1
 70
     0
  9
$DIMSE2
 70
     0
  9
$DIMTAD
 70
     0
  9
$DIMZIN
 70
     0
  9
$DIMBLK
  1

  9
$DIMASO
 70
     1
  9
$DIMSHO
 70
     1
  9
$DIMPOST
  1

  9
$DIMAPOST
  1

  9
$DIMALT
 70
     0
  9
$DIMALTD
 70
     2
  9
$DIMALTF
 40
25.4
  9
$DIMLFAC
 40
1.0
  9
$DIMTOFL
 70
     0
  9
$DIMTVP
 40
0.0
  9
$DIMTIX
 70
     0
  9
$DIMSOXD
 70
     0
  9
$DIMSAH
 70
     0
  9
$DIMBLK1
  1

  9
$DIMBLK2
  1

  9
$DIMSTYLE
  2
Standard
  9
$DIMCLRD
 70
     0
  9
$DIMCLRE
 70
     0
  9
$DIMCLRT
 70
     0
  9
$DIMTFAC
 40
1.0
  9
$DIMGAP
 40
0.09
  9
$DIMJUST
 70
     0
  9
$DIMSD1
 70
     0
  9
$DIMSD2
 70
     0
  9
$DIMTOLJ
 70
     1
  9
$DIMTZIN
 70
     0
  9
$DIMALTZ
 70
     0
  9
$DIMALTTZ
 70
     0
  9
$DIMUPT
 70
     0
  9
$DIMDEC
 70
     4
  9
$DIMTDEC
 70
     4
  9
$DIMALTU
 70
     2
  9
$DIMALTTD
 70
     2
  9
$DIMTXSTY
  7
STANDARD
  9
$DIMAUNIT
 70
     0
  9
$DIMADEC
 70
     0
  9
$DIMALTRND
 40
0.0
  9
$DIMAZIN
 70
     0
  9
$DIMDSEP
 70
    46
  9
$DIMATFIT
 70
     3
  9
$DIMFRAC
 70
     0
  9
$DIMLDRBLK
  1

  9
$DIMLUNIT
 70
     2
  9
$DIMLWD
 70
    -2
  9
$DIMLWE
 70
    -2
  9
$DIMTMOVE
 70
     0
  9
$DIMFXL
 40
1.0
  9
$DIMFXLON
 70
     0
  9
$DIMJOGANG
 40
0.7853981633974483
  9
$DIMTFILL
 70
     0
  9
$DIMTFILLCLR
 70
     0
  9
$DIMARCSYM
 70
     0
  9
$DIMLTYPE
  6

  9
$DIMLTEX1
  6

  9
$DIMLTEX2
  6

  9
$DIMTXTDIRECTION
 70
     0
  9
$LUNITS
 70
     2
  9
$LUPREC
 70
     4
  9
$SKETCHINC
 40
0.1
  9
$FILLETRAD
 40
0.0
  9
$AUNITS
 70
     0
  9
$AUPREC
 70
     0
  9
$MENU
  1
.
  9
$ELEVATION
 40
0.0
  9
$PELEVATION
 40
0.0
  9
$THICKNESS
 40
0.0
  9
$LIMCHECK
 70
     0
  9
$CHAMFERA
 40
0.0
  9
$CHAMFERB
 40
0.0
  9
$CHAMFERC
 40
0.0
  9
$CHAMFERD
 40
0.0
  9
$SKPOLY
 70
     0
  9
$TDCREATE
 40
2458981.874282407
  9
$TDUCREATE
 40
2458981.999282408
  9
$TDUPDATE
 40
2458981.940567130
  9
$TDUUPDATE
 40
2458982.065567130
  9
$TDINDWG
 40
0.0314004630
  9
$TDUSRTIMER
 40
0.0314004630
  9
$USRTIMER
 70
     1
  9
$ANGBASE
 50
0.0
  9
$ANGDIR
 70
     0
  9
$PDMODE
 70
     0
  9
$PDSIZE
 40
0.0
  9
$PLINEWID
 40
0.0
  9
$SPLFRAME
 70
     0
  9
$SPLINETYPE
 70
     6
  9
$SPLINESEGS
 70
     8
  9
$HANDSEED
  5
100F0
  9
$SURFTAB1
 70
     6
  9
$SURFTAB2
 70
     6
  9
$SURFTYPE
 70
     6
  9
$SURFU
 70
     6
  9
$SURFV
 70
     6
  9
$UCSBASE
  2

  9
$UCSNAME
  2

  9
$UCSORG
 10
0.0
 20
0.0
 30
0.0
  9
$UCSXDIR
 10
1.0
 20
0.0
 30
0.0
  9
$UCSYDIR
 10
0.0
 20
1.0
 30
0.0
  9
$UCSORTHOREF
  2

  9
$UCSORTHOVIEW
 70
     0
  9
$UCSORGTOP
 10
0.0
 20
0.0
 30
0.0
  9
$UCSORGBOTTOM
 10
0.0
 20
0.0
 30
0.0
  9
$UCSORGLEFT
 10
0.0
 20
0.0
 30
0.0
  9
$UCSORGRIGHT
 10
0.0
 20
0.0
 30
0.0
  9
$UCSORGFRONT
 10
0.0
 20
0.0
 30
0.0
  9
$UCSORGBACK
 10
0.0
 20
0.0
 30
0.0
  9
$PUCSBASE
  2

  9
$PUCSNAME
  2

  9
$PUCSORG
 10
0.0
 20
0.0
 30
0.0
  9
$PUCSXDIR
 10
1.0
 20
0.0
 30
0.0
  9
$PUCSYDIR
 10
0.0
 20
1.0
 30
0.0
  9
$PUCSORTHOREF
  2

  9
$PUCSORTHOVIEW
 70
     0
  9
$PUCSORGTOP
 10
0.0
 20
0.0
 30
0.0
  9
$PUCSORGBOTTOM
 10
0.0
 20
0.0
 30
0.0
  9
$PUCSORGLEFT
 10
0.0
 20
0.0
 30
0.0
  9
$PUCSORGRIGHT
 10
0.0
 20
0.0
 30
0.0
  9
$PUCSORGFRONT
 10
0.0
 20
0.0
 30
0.0
  9
$PUCSORGBACK
 10
0.0
 20
0.0
 30
0.0
  9
$USERI1
 70
     0
  9
$USERI2
 70
     0
  9
$USERI3
 70
     0
  9
$USERI4
 70
     0
  9
$USERI5
 70
     0
  9
$USERR1
 40
0.0
  9
$USERR2
 40
0.0
  9
$USERR3
 40
0.0
  9
$USERR4
 40
0.0
  9
$USERR5
 40
0.0
  9
$WORLDVIEW
 70
     1
  9
$SHADEDGE
 70
     3
  9
$SHADEDIF
 70
    70
  9
$TILEMODE
 70
     1
  9
$MAXACTVP
 70
    64
  9
$PINSBASE
 10
0.0
 20
0.0
 30
0.0
  9
$PLIMCHECK
 70
     0
  9
$PEXTMIN
 10
1.000000000000000E+20
 20
1.000000000000000E+20
 30
1.000000000000000E+20
  9
$PEXTMAX
 10
-1.000000000000000E+20
 20
-1.000000000000000E+20
 30
-1.000000000000000E+20
  9
$PLIMMIN
 10
0.0
 20
0.0
  9
$PLIMMAX
 10
12.0
 20
9.0
  9
$UNITMODE
 70
     0
  9
$VISRETAIN
 70
     1
  9
$PLINEGEN
 70
     0
  9
$PSLTSCALE
 70
     1
  9
$TREEDEPTH
 70
  3020
  9
$CMLSTYLE
  2
Standard
  9
$CMLJUST
 70
     0
  9
$CMLSCALE
 40
1.0
  9
$PROXYGRAPHICS
 70
     1
  9
$MEASUREMENT
 70
     0
  9
$CELWEIGHT
370
    -1
  9
$ENDCAPS
280
     0
  9
$JOINSTYLE
280
     0
  9
$LWDISPLAY
290
     0
  9
$INSUNITS
 70
     1
  9
$HYPERLINKBASE
  1

  9
$STYLESHEET
  1

  9
$XEDIT
290
     1
  9
$CEPSNTYPE
380
     0
  9
$PSTYLEMODE
290
     1
  9
$FINGERPRINTGUID
  2
{55A696B2-B2D6-884D-B9C5-FF9032A90EE2}
  9
$VERSIONGUID
  2
{A2F3C90F-5572-A54A-B21B-455167F254B1}
  9
$EXTNAMES
290
     1
  9
$PSVPSCALE
 40
0.0
  9
$OLESTARTUP
290
     0
  9
$SORTENTS
280
   127
  9
$INDEXCTL
280
     0
  9
$HIDETEXT
280
     0
  9
$XCLIPFRAME
280
     2
  9
$HALOGAP
280
     0
  9
$OBSCOLOR
 70
   257
  9
$OBSLTYPE
280
     0
  9
$INTERSECTIONDISPLAY
280
     0
  9
$INTERSECTIONCOLOR
 70
   257
  9
$DIMASSOC
280
     1
  9
$PROJECTNAME
  1

  9
$CAMERADISPLAY
290
     0
  9
$LENSLENGTH
 40
50.0
  9
$CAMERAHEIGHT
 40
0.0
  9
$STEPSPERSEC
 40
2.0
  9
$STEPSIZE
 40
6.0
  9
$3DDWFPREC
 40
2.0
  9
$PSOLWIDTH
 40
0.25
  9
$PSOLHEIGHT
 40
4.0
  9
$LOFTANG1
 40
1.570796326794896
  9
$LOFTANG2
 40
1.570796326794896
  9
$LOFTMAG1
 40
0.0
  9
$LOFTMAG2
 40
0.0
  9
$LOFTPARAM
 70
     7
  9
$LOFTNORMALS
280
     1
  9
$LATITUDE
 40
37.795
  9
$LONGITUDE
 40
-122.394
  9
$NORTHDIRECTION
 40
0.0
  9
$TIMEZONE
 70
 -8000
  9
$LIGHTGLYPHDISPLAY
280
     1
  9
$TILEMODELIGHTSYNCH
280
     1
  9
$CMATERIAL
347
10005
  9
$SOLIDHIST
280
     0
  9
$SHOWHIST
280
     1
  9
$DWFFRAME
280
     2
  9
$DGNFRAME
280
     0
  9
$REALWORLDSCALE
290
     1
  9
$INTERFERECOLOR
 62
     1
  9
$INTERFEREOBJVS
345
10027
  9
$INTERFEREVPVS
346
10024
  9
$CSHADOW
280
     0
  9
$SHADOWPLANELOCATION
 40
0.0
  0
ENDSEC
  0
SECTION
  2
CLASSES
  0
CLASS
  1
ACDBDICTIONARYWDFLT
  2
AcDbDictionaryWithDefault
  3
ObjectDBX Classes
 90
        0
 91
        1
280
     0
281
     0
  0
CLASS
  1
MATERIAL
  2
AcDbMaterial
  3
ObjectDBX Classes
 90
     1153
 91
        3
280
     0
281
     0
  0
CLASS
  1
VISUALSTYLE
  2
AcDbVisualStyle
  3
ObjectDBX Classes
 90
     4095
 91
       24
280
     0
281
     0
  0
CLASS
  1
TABLESTYLE
  2
AcDbTableStyle
  3
ObjectDBX Classes
 90
     4095
 91
        1
280
     0
281
     0
  0
CLASS
  1
SCALE
  2
AcDbScale
  3
ObjectDBX Classes
 90
     1153
 91
       17
280
     0
281
     0
  0
CLASS
  1
MLEADERSTYLE
  2
AcDbMLeaderStyle
  3
ACDB_MLEADERSTYLE_CLASS
 90
     4095
 91
        1
280
     0
281
     0
  0
CLASS
  1
ACDBSECTIONVIEWSTYLE
  2
AcDbSectionViewStyle
  3
ObjectDBX Classes
 90
     1025
 91
        1
280
     0
281
     0
  0
CLASS
  1
ACDBDETAILVIEWSTYLE
  2
AcDbDetailViewStyle
  3
ObjectDBX Classes
 90
     1025
 91
        1
280
     0
281
     0
  0
CLASS
  1
EXACXREFPANELOBJECT
  2
ExAcXREFPanelObject
  3
EXAC_ESW
 90
     1025
 91
        0
280
     0
281
     0
  0
CLASS
  1
NPOCOLLECTION
  2
AcDbImpNonPersistentObjectsCollection
  3
ObjectDBX Classes
 90
     1153
 91
        0
280
     0
281
     0
  0
CLASS
  1
DICTIONARYVAR
  2
AcDbDictionaryVar
  3
ObjectDBX Classes
 90
        0
 91
        9
280
     0
281
     0
  0
CLASS
  1
CELLSTYLEMAP
  2
AcDbCellStyleMap
  3
ObjectDBX Classes
 90
     1152
 91
        1
280
     0
281
     0
  0
ENDSEC
  0
SECTION
  2
TABLES
  0
TABLE
  2
VPORT
  5
8
330
0
100
AcDbSymbolTable
 70
     1
1001
ACAD
1000
DbSaveVer
1071
      105
  0
VPORT
  5
10059
330
8
100
AcDbSymbolTableRecord
100
AcDbViewportTableRecord
  2
*Active
 70
     0
 10
0.0
 20
0.0
 11
1.0
 21
1.0
 12
49.03095220820356
 22
-16.89877179237453
 13
0.0
 23
0.0
 14
1.0
 24
1.0
 15
0.0
 25
0.0
 16
0.0
 26
0.0
 36
1.0
 17
0.0
 27
0.0
 37
0.0
 40
130.1880593911308
 41
1.658212560386473
 42
50.0
 43
0.0
 44
0.0
 50
0.0
 51
0.0
 71
     0
 72
  1000
 73
     1
 74
     3
 75
     0
 76
     0
 77
     0
 78
     0
281
     0
 65
     1
110
0.0
120
0.0
130
0.0
111
1.0
121
0.0
131
0.0
112
0.0
122
1.0
132
0.0
 79
     0
146
0.0
348
10023
 60
     2
 61
     5
292
     1
282
     1
141
0.0
142
0.0
 63
   250
421
  3355443
1001
ACAD_NAV_VCDISPLAY
1070
     1
  0
ENDTAB
  0
TABLE
  2
LTYPE
  5
5
330
0
100
AcDbSymbolTable
 70
     1
  0
LTYPE
  5
14
330
5
100
AcDbSymbolTableRecord
100
AcDbLinetypeTableRecord
  2
BYBLOCK
 70
     0
  3

 72
    65
 73
     0
 40
0.0
  0
LTYPE
  5
15
330
5
100
AcDbSymbolTableRecord
100
AcDbLinetypeTableRecord
  2
BYLAYER
 70
     0
  3

 72
    65
 73
     0
 40
0.0
  0
LTYPE
  5
10001
330
5
100
AcDbSymbolTableRecord
100
AcDbLinetypeTableRecord
  2
Continuous
 70
     0
  3
Solid line
 72
    65
 73
     0
 40
0.0
  0
ENDTAB
  0
TABLE
  2
LAYER
  5
2
330
0
100
AcDbSymbolTable
 70
     2
  0
LAYER
  5
50
102
{ACAD_XDICTIONARY
360
100A6
102
}
330
2
100
AcDbSymbolTableRecord
100
AcDbLayerTableRecord
  2
0
 70
     0
 62
     7
  6
Continuous
370
    -3
390
10003
347
10015
348
0
  0
LAYER
  5
10076
330
2
100
AcDbSymbolTableRecord
100
AcDbLayerTableRecord
  2
Defpoints
 70
     0
 62
     7
  6
Continuous
290
     0
370
    -3
390
10003
347
10015
348
0
  0
ENDTAB
  0
TABLE
  2
STYLE
  5
3
330
0
100
AcDbSymbolTable
 70
     1
  0
STYLE
  5
11
330
3
100
AcDbSymbolTableRecord
100
AcDbTextStyleTableRecord
  2
STANDARD
 70
     0
 40
0.0
 41
1.0
 50
0.0
 71
     0
 42
0.2
  3

  4

  0
ENDTAB
  0
TABLE
  2
VIEW
  5
6
330
0
100
AcDbSymbolTable
 70
     0
  0
ENDTAB
  0
TABLE
  2
UCS
  5
7
330
0
100
AcDbSymbolTable
 70
     0
  0
ENDTAB
  0
TABLE
  2
APPID
  5
9
330
0
100
AcDbSymbolTable
 70
     3
  0
APPID
  5
12
330
9
100
AcDbSymbolTableRecord
100
AcDbRegAppTableRecord
  2
ACAD
 70
     0
  0
APPID
  5
10058
330
9
100
AcDbSymbolTableRecord
100
AcDbRegAppTableRecord
  2
ACAD_NAV_VCDISPLAY
 70
     0
  0
APPID
  5
10067
330
9
100
AcDbSymbolTableRecord
100
AcDbRegAppTableRecord
  2
ACAD_EXEMPT_FROM_CAD_STANDARDS
 70
     0
  0
ENDTAB
  0
TABLE
  2
DIMSTYLE
  5
A
330
0
100
AcDbSymbolTable
 70
     1
100
AcDbDimStyleTable
 71
     1
340
10053
  0
DIMSTYLE
105
10053
330
A
100
AcDbSymbolTableRecord
100
AcDbDimStyleTableRecord
  2
Standard
 70
     0
340
11
  0
ENDTAB
  0
TABLE
  2
BLOCK_RECORD
  5
1
330
0
100
AcDbSymbolTable
 70
     2
  0
BLOCK_RECORD
  5
1F
330
1
100
AcDbSymbolTableRecord
100
AcDbBlockTableRecord
  2
*MODEL_SPACE
340
10055
 70
     0
280
     1
281
     0
  0
BLOCK_RECORD
  5
1B
330
1
100
AcDbSymbolTableRecord
100
AcDbBlockTableRecord
  2
*PAPER_SPACE
340
10056
 70
     0
280
     1
281
     0
  0
ENDTAB
  0
ENDSEC
  0
SECTION
  2
BLOCKS
  0
BLOCK
  5
20
330
1F
100
AcDbEntity
  8
0
100
AcDbBlockBegin
  2
*MODEL_SPACE
 70
     0
 10
0.0
 20
0.0
 30
0.0
  3
*MODEL_SPACE
  1

  0
ENDBLK
  5
21
330
1F
100
AcDbEntity
  8
0
100
AcDbBlockEnd
  0
BLOCK
  5
1C
330
1B
100
AcDbEntity
 67
     1
  8
0
100
AcDbBlockBegin
  2
*PAPER_SPACE
 70
     0
 10
0.0
 20
0.0
 30
0.0
  3
*PAPER_SPACE
  1

  0
ENDBLK
  5
1D
330
1B
100
AcDbEntity
 67
     1
  8
0
100
AcDbBlockEnd
  0
ENDSEC
  0
SECTION
  2
ENTITIES
  0
ARC
  5
100
330
1F
100
AcDbEntity
  8
0
100
AcDbCircle
 10
0.0103438441948749
 20
0.0059720230626343
 30
0.0
 40
3.611562500007718
100
AcDbArc
 50
59.21931826707547
 51
60.78068173292521
  0
ARC
  5
101
330
1F
100
AcDbEntity
  8
0
100
AcDbCircle
 10
1.797566726861942
 20
3.201300534737314
 30
0.0
 40
0.0496244564109113
100
AcDbArc
 50
151.5573039085394
 51
240.7806817329344
  0
LINE
  5
102
330
1F
100
AcDbEntity
  8
0
100
AcDbLine
 10
1.753932245073431
 20
3.224935649992513
 30
0.0
 11
1.767168949413229
 21
3.249372879437703
 31
0.0
  0
SPLINE
  5
103
330
1F
100
AcDbEntity
  8
0
100
AcDbSpline
210
0.0
220
0.0
230
1.0
 70
     8
 71
     3
 72
    10
 73
     6
 74
     0
 42
0.000000001
 43
0.0000000001
 40
0.0
 40
0.0
 40
0.0
 40
0.0
 40
0.0747004605847622
 40
0.0747004605847622
 40
0.1478458668470559
 40
0.1478458668470559
 40
0.1478458668470559
 40
0.1478458668470559
 10
1.767168949413229
 20
3.249372879437703
 30
0.0
 10
1.778844074856145
 20
3.271366266889908
 30
0.0
 10
1.793249239034993
 20
3.312225880877777
 30
0.0
 10
1.818518609429995
 20
3.415993810383313
 30
0.0
 10
1.824693833924115
 20
3.458316360050877
 30
0.0
 10
1.828211478039556
 20
3.484619344520623
 30
0.0
  0
ARC
  5
104
330
1F
100
AcDbEntity
  8
0
100
AcDbCircle
 10
1.777859757751341
 20
3.491353159488198
 30
0.0
 40
0.050800000000002
100
AcDbArc
 50
352.3827150896356
 51
63.01398810520378
  0
ARC
  5
105
330
1F
100
AcDbEntity
  8
0
100
AcDbCircle
 10
0.0
 20
0.0
 30
0.0
 40
3.968749999999987
100
AcDbArc
 50
63.01398810520343
 51
64.3044204552525
  0
ARC
  5
106
330
1F
100
AcDbEntity
  8
0
100
AcDbCircle
 10
1.69878223170344
 20
3.530505789791127
 30
0.0
 40
0.0507999999999866
100
AcDbArc
 50
64.3044204552519
 51
135.1124577181791
  0
SPLINE
  5
107
330
1F
100
AcDbEntity
  8
0
100
AcDbSpline
210
0.0
220
0.0
230
1.0
 70
     8
 71
     3
 72
    10
 73
     6
 74
     0
 42
0.000000001
 43
0.0000000001
 40
0.0
 40
0.0
 40
0.0
 40
0.0
 40
0.0800021531851445
 40
0.0800021531851445
 40
0.1617391655172946
 40
0.1617391655172946
 40
0.1617391655172946
 40
0.1617391655172946
 10
1.662790772197317
 20
3.566356240870843
 30
0.0
 10
1.643971131280833
 20
3.54746257774672
 30
0.0
 10
1.614196479759133
 20
3.516845606957094
 30
0.0
 10
1.547222948925457
 20
3.433602446631055
 30
0.0
 10
1.523558347110367
 20
3.397277511329442
 30
0.0
 10
1.513210382952857
 20
3.37461138475516
 30
0.0
  0
LINE
  5
108
330
1F
100
AcDbEntity
  8
0
100
AcDbLine
 10
1.513210382952856
 20
3.37461138475516
 30
0.0
 11
1.501881020394313
 21
3.349233558434666
 31
0.0
  0
ARC
  5
109
330
1F
100
AcDbEntity
  8
0
100
AcDbCircle
 10
1.456567033270803
 20
3.369462973775917
 30
0.0
 40
0.0496244564109121
100
AcDbArc
 50
246.719318267075
 51
335.94269609146
  0
ARC
  5
110
330
1F
100
AcDbEntity
  8
0
100
AcDbCircle
 10
0.0095348412169245
 20
0.0063709790513182
 30
0.0
 40
3.61156250000376
100
AcDbArc
 50
66.71931826707456
 51
68.2806817329257
  0
ARC
  5
111
330
1F
100
AcDbEntity
  8
0
100
AcDbCircle
 10
1.364393720844305
 20
3.407642409871823
 30
0.0
 40
0.0496244564109116
100
AcDbArc
 50
159.0573039085396
 51
248.2806817329588
  0
LINE
  5
112
330
1F
100
AcDbEntity
  8
0
100
AcDbLine
 10
1.318047536499433
 20
3.425379880682219
 30
0.0
 11
1.327981300490762
 21
3.451335782856881
 31
0.0
  0
SPLINE
  5
113
330
1F
100
AcDbEntity
  8
0
100
AcDbSpline
210
0.0
220
0.0
230
1.0
 70
     8
 71
     3
 72
    10
 73
     6
 74
     0
 42
0.000000001
 43
0.0000000001
 40
0.0
 40
0.0
 40
0.0
 40
0.0
 40
0.0749985713887634
 40
0.0749985713887634
 40
0.1484804202286462
 40
0.1484804202286462
 40
0.1484804202286462
 40
0.1484804202286462
 10
1.327981300490762
 20
3.451335782856881
 30
0.0
 10
1.336720568095127
 20
3.474758024247892
 30
0.0
 10
1.345690243659855
 20
3.517321886499039
 30
0.0
 10
1.357189253143819
 20
3.62389871406378
 30
0.0
 10
1.357758307852122
 20
3.668119940099632
 30
0.0
 10
1.357797400268702
 20
3.693441552932562
 30
0.0
  0
ARC
  5
114
330
1F
100
AcDbEntity
  8
0
100
AcDbCircle
 10
1.306997460807588
 20
3.693519979632238
 30
0.0
 40
0.0508000000000001
100
AcDbArc
 50
359.91154486855
 51
70.51304846307949
  0
ARC
  5
115
330
1F
100
AcDbEntity
  8
0
100
AcDbCircle
 10
0.0
 20
0.0
 30
0.0
 40
3.968750000000002
100
AcDbArc
 50
70.51304846307935
 51
71.79522848966745
  0
ARC
  5
116
330
1F
100
AcDbEntity
  8
0
100
AcDbCircle
 10
1.224022547815429
 20
3.721841077335167
 30
0.0
 40
0.0508000000000061
100
AcDbArc
 50
71.79522848966534
 51
142.5833442961678
  0
SPLINE
  5
117
330
1F
100
AcDbEntity
  8
0
100
AcDbSpline
210
0.0
220
0.0
230
1.0
 70
     8
 71
     3
 72
    10
 73
     6
 74
     0
 42
0.000000001
 43
0.0000000001
 40
0.0
 40
0.0
 40
0.0
 40
0.0
 40
0.0758949127808464
 40
0.0758949127808464
 40
0.1533125789885805
 40
0.1533125789885805
 40
0.1533125789885805
 40
0.1533125789885805
 10
1.183675256159864
 20
3.752707500128565
 30
0.0
 10
1.168303835810161
 20
3.732614624901796
 30
0.0
 10
1.141803281710225
 20
3.69715686952174
 30
0.0
 10
1.085990177904421
 20
3.605529639912473
 30
0.0
 10
1.067178973821089
 20
3.566274030555189
 30
0.0
 10
1.059848479553351
 20
3.542354610738275
 30
0.0
  0
LINE
  5
118
330
1F
100
AcDbEntity
  8
0
100
AcDbLine
 10
1.059848479553351
 20
3.542354610738275
 30
0.0
 11
1.051928512298479
 21
3.515715116684937
 31
0.0
  0
ARC
  5
119
330
1F
100
AcDbEntity
  8
0
100
AcDbCircle
 10
1.004361724061184
 20
3.529856804380075
 30
0.0
 40
0.0496244564109115
100
AcDbArc
 50
254.2193182670744
 51
343.4426960914621
  0
ARC
  5
120
330
1F
100
AcDbEntity
  8
0
100
AcDbCircle
 10
0.0086806851627536
 20
0.0066609258295731
 30
0.0
 40
3.611562500008701
100
AcDbArc
 50
74.21931826707577
 51
75.78068173292429
  0
ARC
  5
121
330
1F
100
AcDbEntity
  8
0
100
AcDbCircle
 10
0.9079935506854223
 20
3.555678578612174
 30
0.0
 40
0.0496244564109121
100
AcDbArc
 50
166.5573039085392
 51
255.78068173299
  0
LINE
  5
122
330
1F
100
AcDbEntity
  8
0
100
AcDbLine
 10
0.8597286598479204
 20
3.567214911934445
 30
0.0
 11
0.8661895140347285
 21
3.594245374156035
 31
0.0
  0
SPLINE
  5
123
330
1F
100
AcDbEntity
  8
0
100
AcDbSpline
210
0.0
220
0.0
230
1.0
 70
     8
 71
     3
 72
    10
 73
     6
 74
     0
 42
0.000000001
 43
0.0000000001
 40
0.0
 40
0.0
 40
0.0
 40
0.0
 40
0.0842121874722304
 40
0.0842121874722304
 40
0.1783341350604651
 40
0.1783341350604651
 40
0.1783341350604651
 40
0.1783341350604651
 10
0.8661895140347285
 20
3.594245374156035
 30
0.0
 10
0.8724856582027928
 20
3.621600892868784
 30
0.0
 10
0.8749602824241565
 20
3.668755850797194
 30
0.0
 10
0.8726194125583685
 20
3.770047952401371
 30
0.0
 10
0.867118577280943
 20
3.815443073909989
 30
0.0
 10
0.8640268911517823
 20
3.839111414523904
 30
0.0
  0
ARC
  5
124
330
1F
100
AcDbEntity
  8
0
100
AcDbCircle
 10
0.8136548225231166
 20
3.832531543547259
 30
0.0
 40
0.0508000000000031
100
AcDbArc
 50
7.442145865484291
 51
78.01394538083986
  0
ARC
  5
125
330
1F
100
AcDbEntity
  8
0
100
AcDbCircle
 10
0.0
 20
0.0
 30
0.0
 40
3.968749999999985
100
AcDbArc
 50
78.0139453808398
 51
79.28748089902126
  0
ARC
  5
126
330
1F
100
AcDbEntity
  8
0
100
AcDbCircle
 10
0.7282736839505605
 20
3.849668770656116
 30
0.0
 40
0.0507999999999966
100
AcDbArc
 50
79.28748089901934
 51
150.0524960942114
  0
SPLINE
  5
127
330
1F
100
AcDbEntity
  8
0
100
AcDbSpline
210
0.0
220
0.0
230
1.0
 70
     8
 71
     3
 72
    10
 73
     6
 74
     0
 42
0.000000001
 43
0.0000000001
 40
0.0
 40
0.0
 40
0.0
 40
0.0
 40
0.0716057713730822
 40
0.0716057713730822
 40
0.1356496554125484
 40
0.1356496554125484
 40
0.1356496554125484
 40
0.1356496554125484
 10
0.684256339673488
 20
3.875028451308559
 30
0.0
 10
0.6723409886924548
 20
3.854346719721578
 30
0.0
 10
0.6498615383271435
 20
3.81448076586059
 30
0.0
 10
0.608902460565012
 20
3.721741311757927
 30
0.0
 10
0.5931257931518679
 20
3.677193025941031
 30
0.0
 10
0.5884702655269777
 20
3.649487167221127
 30
0.0
  0
LINE
  5
128
330
1F
100
AcDbEntity
  8
0
100
AcDbLine
 10
0.5884702655269777
 20
3.649487167221127
 30
0.0
 11
0.5840952064113372
 21
3.622041814564062
 31
0.0
  0
ARC
  5
129
330
1F
100
AcDbEntity
  8
0
100
AcDbCircle
 10
0.5350894979950041
 20
3.629853806415809
 30
0.0
 40
0.0496244564109113
100
AcDbArc
 50
261.7193182670733
 51
350.9426960914614
  0
ARC
  5
130
330
1F
100
AcDbEntity
  8
0
100
AcDbCircle
 10
0.0077959908863242
 20
0.0068369023551726
 30
0.0
 40
3.611562499993813
100
AcDbArc
 50
81.71931826707234
 51
83.28068173292766
  0
ARC
  5
131
330
1F
100
AcDbEntity
  8
0
100
AcDbCircle
 10
0.4361753498347415
 20
3.642876101067836
 30
0.0
 40
0.0496244564109116
100
AcDbArc
 50
174.0573039085392
 51
263.2806817329656
  0
LINE
  5
132
330
1F
100
AcDbEntity
  8
0
100
AcDbLine
 10
0.3868175781683955
 20
3.648013907040362
 30
0.0
 11
0.3896949755442593
 21
3.675656430606008
 31
0.0
  0
SPLINE
  5
133
330
1F
100
AcDbEntity
  8
0
100
AcDbSpline
210
0.0
220
0.0
230
1.0
 70
     8
 71
     3
 72
    10
 73
     6
 74
     0
 42
0.000000001
 43
0.0000000001
 40
0.0
 40
0.0
 40
0.0
 40
0.0
 40
0.0557285955846733
 40
0.0557285955846733
 40
0.1049992277848154
 40
0.1049992277848154
 40
0.1049992277848154
 40
0.1049992277848154
 10
0.3896949755442595
 20
3.675656430606008
 30
0.0
 10
0.3914629893542358
 20
3.694148301223329
 30
0.0
 10
0.3908063840199019
 20
3.737228742724776
 30
0.0
 10
0.3728001954099172
 20
3.852562350314614
 30
0.0
 10
0.3609542009858422
 20
3.89808884210564
 30
0.0
 10
0.3553376946287942
 20
3.919087540645734
 30
0.0
  0
ARC
  5
134
330
1F
100
AcDbEntity
  8
0
100
AcDbCircle
 10
0.3062627794262627
 20
3.905961509339038
 30
0.0
 40
0.0508000000000003
100
AcDbArc
 50
14.97434090155333
 51
85.51666445907086
  0
ARC
  5
135
330
1F
100
AcDbEntity
  8
0
100
AcDbCircle
 10
0.0
 20
0.0
 30
0.0
 40
3.96875
100
AcDbArc
 50
85.51666445907081
 51
86.78130910687395
  0
ARC
  5
136
330
1F
100
AcDbEntity
  8
0
100
AcDbCircle
 10
0.2199819653067469
 20
3.91176943817498
 30
0.0
 40
0.0507999999999972
100
AcDbArc
 50
86.78130910687002
 51
157.5200894003227
  0
SPLINE
  5
137
330
1F
100
AcDbEntity
  8
0
100
AcDbSpline
210
0.0
220
0.0
230
1.0
 70
     8
 71
     3
 72
    10
 73
     6
 74
     0
 42
0.000000001
 43
0.0000000001
 40
0.0
 40
0.0
 40
0.0
 40
0.0
 40
0.0653849655964869
 40
0.0653849655964869
 40
0.1393720347960762
 40
0.1393720347960762
 40
0.1393720347960762
 40
0.1393720347960762
 10
0.1730420716556869
 20
3.931193299377818
 30
0.0
 10
0.1647085513749797
 20
3.911054432357845
 30
0.0
 10
0.1470121370725235
 20
3.867447319421903
 30
0.0
 10
0.1140855379844064
 20
3.7554188017999
 30
0.0
 10
0.1078025569528253
 20
3.71275781620979
 30
0.0
 10
0.1071411528064558
 20
3.69417598645954
 30
0.0
  0
LINE
  5
138
330
1F
100
AcDbEntity
  8
0
100
AcDbLine
 10
0.1071411528064558
 20
3.69417598645954
 30
0.0
 11
0.1063858603045102
 21
3.666394372791997
 31
0.0
  0
ARC
  5
139
330
1F
100
AcDbEntity
  8
0
100
AcDbCircle
 10
0.0567797329670901
 20
3.667743003453876
 30
0.0
 40
0.049624456410912
100
AcDbArc
 50
269.2193182670745
 51
358.442696091461
  0
ARC
  5
140
330
1F
100
AcDbEntity
  8
0
100
AcDbCircle
 10
0.0068958957443605
 20
0.0068958975800189
 30
0.0
 40
3.611562500001047
100
AcDbArc
 50
89.21931826707437
 51
90.78068173292692
  0
ARC
  5
141
330
1F
100
AcDbEntity
  8
0
100
AcDbCircle
 10
-0.042987941478466
 20
3.667743003453876
 30
0.0
 40
0.0496244564109113
100
AcDbArc
 50
181.5573039085396
 51
270.7806817329426
  0
LINE
  5
142
330
1F
100
AcDbEntity
  8
0
100
AcDbLine
 10
-0.0925940688158854
 20
3.666394372791996
 30
0.0
 11
-0.0933493613178316
 21
3.694175986459537
 31
0.0
  0
SPLINE
  5
143
330
1F
100
AcDbEntity
  8
0
100
AcDbSpline
210
0.0
220
0.0
230
1.0
 70
     8
 71
     3
 72
    10
 73
     6
 74
     0
 42
0.000000001
 43
0.0000000001
 40
0.0
 40
0.0
 40
0.0
 40
0.0
 40
0.0560401658412589
 40
0.0560401658412589
 40
0.1053981358611409
 40
0.1053981358611409
 40
0.1053981358611409
 40
0.1053981358611409
 10
-0.0933493613178315
 20
3.694175986459537
 30
0.0
 10
-0.0940138409214724
 20
3.71284421969506
 30
0.0
 10
-0.1003409612621714
 20
3.755678075938567
 30
0.0
 10
-0.133349552558412
 20
3.867799352345042
 30
0.0
 10
-0.1510724005860691
 20
3.911458406988435
 30
0.0
 10
-0.1595642039301437
 20
3.931951408461628
 30
0.0
  0
ARC
  5
144
330
1F
100
AcDbEntity
  8
0
100
AcDbCircle
 10
-0.206494592237544
 20
3.912504592441605
 30
0.0
 40
0.0508000000000001
100
AcDbArc
 50
22.50793254848972
 51
93.02115977774089
  0
ARC
  5
145
330
1F
100
AcDbEntity
  8
0
100
AcDbCircle
 10
0.0
 20
0.0
 30
0.0
 40
3.96875
100
AcDbArc
 50
93.02115977774096
 51
94.27681789424756
  0
ARC
  5
146
330
1F
100
AcDbEntity
  8
0
100
AcDbCircle
 10
-0.2921821224181609
 20
3.907040031768194
 30
0.0
 40
0.0508000000000015
100
AcDbArc
 50
94.27681789424644
 51
164.9863285502725
  0
SPLINE
  5
147
330
1F
100
AcDbEntity
  8
0
100
AcDbSpline
210
0.0
220
0.0
230
1.0
 70
     8
 71
     3
 72
    10
 73
     6
 74
     0
 42
0.000000001
 43
0.0000000001
 40
0.0
 40
0.0
 40
0.0
 40
0.0
 40
0.0668427488281615
 40
0.0668427488281615
 40
0.1428051213684688
 40
0.1428051213684688
 40
0.1428051213684688
 40
0.1428051213684688
 10
-0.3412480157269057
 20
3.920199747335593
 30
0.0
 10
-0.3470198763315981
 20
3.898679411481789
 30
0.0
 10
-0.3588931184970568
 20
3.853075877851201
 30
0.0
 10
-0.3769964021901933
 20
3.737598044037265
 30
0.0
 10
-0.3776827422905353
 20
3.694269045686713
 30
0.0
 10
-0.3759031840399213
 20
3.67565643036626
 30
0.0
  0
LINE
  5
148
330
1F
100
AcDbEntity
  8
0
100
AcDbLine
 10
-0.3759031840399213
 20
3.67565643036626
 30
0.0
 11
-0.3730257866640564
 21
3.648013906800612
 31
0.0
  0
ARC
  5
149
330
1F
100
AcDbEntity
  8
0
100
AcDbCircle
 10
-0.4223835583304029
 20
3.642876100828087
 30
0.0
 40
0.0496244564109121
100
AcDbArc
 50
276.7193182670742
 51
5.942696091460159
  0
ARC
  5
150
330
1F
100
AcDbEntity
  8
0
100
AcDbCircle
 10
0.0059958006185322
 20
0.0068369021118651
 30
0.0
 40
3.611562499997406
100
AcDbArc
 50
96.7193182670733
 51
98.28068173292749
  0
ARC
  5
151
330
1F
100
AcDbEntity
  8
0
100
AcDbCircle
 10
-0.521297706490665
 20
3.629853806176059
 30
0.0
 40
0.0496244564109111
100
AcDbArc
 50
189.0573039085394
 51
278.2806817329368
  0
LINE
  5
152
330
1F
100
AcDbEntity
  8
0
100
AcDbLine
 10
-0.5703034149069978
 20
3.62204181432431
 30
0.0
 11
-0.5746784740226392
 21
3.649487166981375
 31
0.0
  0
SPLINE
  5
153
330
1F
100
AcDbEntity
  8
0
100
AcDbSpline
210
0.0
220
0.0
230
1.0
 70
     8
 71
     3
 72
    10
 73
     6
 74
     0
 42
0.000000001
 43
0.0000000001
 40
0.0
 40
0.0
 40
0.0
 40
0.0
 40
0.0563515249594496
 40
0.0563515249594496
 40
0.105651783161911
 40
0.105651783161911
 40
0.105651783161911
 40
0.105651783161911
 10
-0.5746784740226391
 20
3.649487166981375
 30
0.0
 10
-0.577791160841406
 20
3.668011310362888
 30
0.0
 10
-0.5897348848332417
 20
3.70985188286652
 30
0.0
 10
-0.6371490582033886
 20
3.816670058889296
 30
0.0
 10
-0.6604064079881048
 20
3.857641839199704
 30
0.0
 10
-0.6718536445710602
 20
3.877434991178211
 30
0.0
  0
ARC
  5
154
330
1F
100
AcDbEntity
  8
0
100
AcDbCircle
 10
-0.7158288140162404
 20
3.852002247081917
 30
0.0
 40
0.0507999999999988
100
AcDbArc
 50
30.04265350045919
 51
100.5273546343067
  0
ARC
  5
155
330
1F
100
AcDbEntity
  8
0
100
AcDbCircle
 10
0.0
 20
0.0
 30
0.0
 40
3.968750000000004
100
AcDbArc
 50
100.527354634307
 51
101.7740836723459
  0
ARC
  5
156
330
1F
100
AcDbEntity
  8
0
100
AcDbCircle
 10
-0.7994704876601513
 20
3.835515498842419
 30
0.0
 40
0.0508000000000092
100
AcDbArc
 50
101.7740836723321
 51
172.4514957102861
  0
SPLINE
  5
157
330
1F
100
AcDbEntity
  8
0
100
AcDbSpline
210
0.0
220
0.0
230
1.0
 70
     8
 71
     3
 72
    10
 73
     6
 74
     0
 42
0.000000001
 43
0.0000000001
 40
0.0
 40
0.0
 40
0.0
 40
0.0
 40
0.0689978700513994
 40
0.0689978700513994
 40
0.1479727433740525
 40
0.1479727433740525
 40
0.1479727433740525
 40
0.1479727433740525
 10
-0.8498302552627734
 20
3.842188864335927
 30
0.0
 10
-0.8528515675927021
 20
3.819388885978542
 30
0.0
 10
-0.8586548186180813
 20
3.772644187273005
 30
0.0
 10
-0.861592219264541
 20
3.655828837751715
 30
0.0
 10
-0.8566146813021539
 20
3.612567237474485
 30
0.0
 10
-0.8523977224835176
 20
3.594245373680639
 30
0.0
  0
LINE
  5
158
330
1F
100
AcDbEntity
  8
0
100
AcDbLine
 10
-0.8523977224835176
 20
3.594245373680639
 30
0.0
 11
-0.8459368682967088
 21
3.567214911459048
 31
0.0
  0
ARC
  5
159
330
1F
100
AcDbEntity
  8
0
100
AcDbCircle
 10
-0.8942017591342105
 20
3.555678578136777
 30
0.0
 40
0.0496244564109119
100
AcDbArc
 50
284.2193182670743
 51
13.44269609146151
  0
ARC
  5
160
330
1F
100
AcDbEntity
  8
0
100
AcDbCircle
 10
0.0051111063848847
 20
0.0066609253677057
 30
0.0
 40
3.611562499994709
100
AcDbArc
 50
104.2193182670725
 51
105.7806817329279
  0
ARC
  5
161
330
1F
100
AcDbEntity
  8
0
100
AcDbCircle
 10
-0.9905699325099728
 20
3.529856803904677
 30
0.0
 40
0.0496244564109113
100
AcDbArc
 50
196.5573039085393
 51
285.7806817329364
  0
LINE
  5
162
330
1F
100
AcDbEntity
  8
0
100
AcDbLine
 10
-1.038136720747266
 20
3.515715116209538
 30
0.0
 11
-1.046056688002138
 21
3.542354610262874
 31
0.0
  0
SPLINE
  5
163
330
1F
100
AcDbEntity
  8
0
100
AcDbSpline
210
0.0
220
0.0
230
1.0
 70
     8
 71
     3
 72
    10
 73
     6
 74
     0
 42
0.000000001
 43
0.0000000001
 40
0.0
 40
0.0
 40
0.0
 40
0.0
 40
0.0566549137206044
 40
0.0566549137206044
 40
0.105765715789408
 40
0.105765715789408
 40
0.105765715789408
 40
0.105765715789408
 10
-1.046056688002138
 20
3.542354610262874
 30
0.0
 10
-1.051590263717217
 20
3.560410680670046
 30
0.0
 10
-1.068995838408736
 20
3.600517261403717
 30
0.0
 10
-1.129921358206329
 20
3.700072698564121
 30
0.0
 10
-1.158255003482723
 20
3.737606839421947
 30
0.0
 10
-1.172738246005276
 20
3.756428578105182
 30
0.0
  0
ARC
  5
164
330
1F
100
AcDbEntity
  8
0
100
AcDbCircle
 10
-1.212998394048049
 20
3.725448576820905
 30
0.0
 40
0.0507999999999982
100
AcDbArc
 50
37.57811881166813
 51
108.0351428127665
  0
ARC
  5
165
330
1F
100
AcDbEntity
  8
0
100
AcDbCircle
 10
0.0
 20
0.0
 30
0.0
 40
3.968750000000005
100
AcDbArc
 50
108.0351428127668
 51
109.2731532366172
  0
ARC
  5
166
330
1F
100
AcDbEntity
  8
0
100
AcDbCircle
 10
-1.293206081777194
 20
3.698371294577442
 30
0.0
 40
0.0508000000000143
100
AcDbArc
 50
109.2731532366157
 51
179.9159970532153
  0
SPLINE
  5
167
330
1F
100
AcDbEntity
  8
0
100
AcDbSpline
210
0.0
220
0.0
230
1.0
 70
     8
 71
     3
 72
    10
 73
     6
 74
     0
 42
0.000000001
 43
0.0000000001
 40
0.0
 40
0.0
 40
0.0
 40
0.0
 40
0.0717300299322893
 40
0.0717300299322893
 40
0.1546205126338315
 40
0.1546205126338315
 40
0.1546205126338315
 40
0.1546205126338315
 10
-1.34400602717911
 20
3.698445773853301
 30
0.0
 10
-1.344041082266887
 20
3.674535789573474
 30
0.0
 10
-1.343664757857513
 20
3.627530013920488
 30
0.0
 10
-1.331408350396321
 20
3.51149248572192
 30
0.0
 10
-1.320796946182426
 20
3.469044473418935
 30
0.0
 10
-1.314189508862321
 20
3.451335782153972
 30
0.0
  0
LINE
  5
168
330
1F
100
AcDbEntity
  8
0
100
AcDbLine
 10
-1.31418950886232
 20
3.451335782153972
 30
0.0
 11
-1.304255744870992
 21
3.425379879979311
 31
0.0
  0
ARC
  5
169
330
1F
100
AcDbEntity
  8
0
100
AcDbCircle
 10
-1.350601929215862
 20
3.407642409168914
 30
0.0
 40
0.0496244564109108
100
AcDbArc
 50
291.7193182670736
 51
20.94269609146282
  0
ARC
  5
170
330
1F
100
AcDbEntity
  8
0
100
AcDbCircle
 10
0.0042569504070085
 20
0.006370978359441
 30
0.0
 40
3.611562499991842
100
AcDbArc
 50
111.7193182670721
 51
113.2806817329289
  0
ARC
  5
171
330
1F
100
AcDbEntity
  8
0
100
AcDbCircle
 10
-1.442775241642362
 20
3.369462973073006
 30
0.0
 40
0.0496244564109112
100
AcDbArc
 50
204.0573039085396
 51
293.2806817329259
  0
LINE
  5
172
330
1F
100
AcDbEntity
  8
0
100
AcDbLine
 10
-1.488089228765872
 20
3.349233557731754
 30
0.0
 11
-1.499418591324414
 21
3.374611384052247
 31
0.0
  0
SPLINE
  5
173
330
1F
100
AcDbEntity
  8
0
100
AcDbSpline
210
0.0
220
0.0
230
1.0
 70
     8
 71
     3
 72
    10
 73
     6
 74
     0
 42
0.000000001
 43
0.0000000001
 40
0.0
 40
0.0
 40
0.0
 40
0.0
 40
0.0569429495817393
 40
0.0569429495817393
 40
0.1057669521654502
 40
0.1057669521654502
 40
0.1057669521654502
 40
0.1057669521654502
 10
-1.499418591324414
 20
3.374611384052247
 30
0.0
 10
-1.507301490905204
 20
3.391878046069174
 30
0.0
 10
-1.529913115167323
 20
3.429530382474847
 30
0.0
 10
-1.603202515168955
 20
3.520052296094664
 30
0.0
 10
-1.636063523398317
 20
3.553490933529702
 30
0.0
 10
-1.653610596423897
 20
3.570968446655283
 30
0.0
  0
ARC
  5
174
330
1F
100
AcDbEntity
  8
0
100
AcDbCircle
 10
-1.689460209945194
 20
3.534976152891573
 30
0.0
 40
0.0507999999999956
100
AcDbArc
 50
45.11379103466059
 51
115.5443903696302
  0
ARC
  5
175
330
1F
100
AcDbEntity
  8
0
100
AcDbCircle
 10
0.0
 20
0.0
 30
0.0
 40
3.968750000000017
100
AcDbArc
 50
115.5443903696306
 51
116.7740430136043
  0
ARC
  5
176
330
1F
100
AcDbEntity
  8
0
100
AcDbCircle
 10
-1.764931168058003
 20
3.49790654170713
 30
0.0
 40
0.0507999999999835
100
AcDbArc
 50
116.7740430136033
 51
187.3803943478582
  0
SPLINE
  5
177
330
1F
100
AcDbEntity
  8
0
100
AcDbSpline
210
0.0
220
0.0
230
1.0
 70
     8
 71
     3
 72
    10
 73
     6
 74
     0
 42
0.000000001
 43
0.0000000001
 40
0.0
 40
0.0
 40
0.0
 40
0.0
 40
0.0774710461314652
 40
0.0774710461314652
 40
0.1674831123999969
 40
0.1674831123999969
 40
0.1674831123999969
 40
0.1674831123999969
 10
-1.815310298999421
 20
3.491380963909942
 30
0.0
 10
-1.811993085464161
 20
3.465771226530151
 30
0.0
 10
-1.805650630114654
 20
3.420546997180087
 30
0.0
 10
-1.778399147428682
 20
3.307042167485837
 30
0.0
 10
-1.762283986370578
 20
3.266151399260087
 30
0.0
 10
-1.753377157678522
 20
3.249372878519308
 30
0.0
  0
LINE
  5
178
330
1F
100
AcDbEntity
  8
0
100
AcDbLine
 10
-1.753377157678522
 20
3.249372878519308
 30
0.0
 11
-1.740140453338725
 21
3.224935649074119
 31
0.0
  0
ARC
  5
179
330
1F
100
AcDbEntity
  8
0
100
AcDbCircle
 10
-1.783774935127235
 20
3.201300533818918
 30
0.0
 40
0.0496244564109115
100
AcDbArc
 50
299.2193182670732
 51
28.44269609146176
  0
ARC
  5
180
330
1F
100
AcDbEntity
  8
0
100
AcDbCircle
 10
0.0034479475374793
 20
0.0059720221484487
 30
0.0
 40
3.611562500002895
100
AcDbArc
 50
119.2193182670747
 51
120.7806817329267
  0
ARC
  5
181
330
1F
100
AcDbEntity
  8
0
100
AcDbCircle
 10
-1.870176275673582
 20
3.15141669659614
 30
0.0
 40
0.0496244564109118
100
AcDbArc
 50
211.5573039085401
 51
300.780681732917
  0
LINE
  5
182
330
1F
100
AcDbEntity
  8
0
100
AcDbLine
 10
-1.912462126800213
 20
3.12544568451392
 30
0.0
 11
-1.927007036127957
 21
3.149127621457161
 31
0.0
  0
SPLINE
  5
183
330
1F
100
AcDbEntity
  8
0
100
AcDbSpline
210
0.0
220
0.0
230
1.0
 70
     8
 71
     3
 72
    10
 73
     6
 74
     0
 42
0.000000001
 43
0.0000000001
 40
0.0
 40
0.0
 40
0.0
 40
0.0
 40
0.0572091373496595
 40
0.0572091373496595
 40
0.1065486609862844
 40
0.1065486609862844
 40
0.1065486609862844
 40
0.1065486609862844
 10
-1.927007036127957
 20
3.149127621457161
 30
0.0
 10
-1.937123317992467
 20
3.165292854958696
 30
0.0
 10
-1.964586399187704
 20
3.199806053990252
 30
0.0
 10
-2.049571282169242
 20
3.280391394037251
 30
0.0
 10
-2.086430936692603
 20
3.309118108988257
 30
0.0
 10
-2.106197983174058
 20
3.324204405132214
 30
0.0
  0
ARC
  5
184
330
1F
100
AcDbEntity
  8
0
100
AcDbCircle
 10
-2.137018173668778
 20
3.283821786868048
 30
0.0
 40
0.0508000000000013
100
AcDbArc
 50
52.64896843236706
 51
123.0549379189295
  0
ARC
  5
185
330
1F
100
AcDbEntity
  8
0
100
AcDbCircle
 10
0.0
 20
0.0
 30
0.0
 40
3.968749999999989
100
AcDbArc
 50
123.0549379189298
 51
124.2767387990766
  0
ARC
  5
186
330
1F
100
AcDbEntity
  8
0
100
AcDbCircle
 10
-2.206552687145711
 20
3.237507905990345
 30
0.0
 40
0.050799999999994
100
AcDbArc
 50
124.2767387990601
 51
194.8454123525576
  0
SPLINE
  5
187
330
1F
100
AcDbEntity
  8
0
100
AcDbSpline
210
0.0
220
0.0
230
1.0
 70
     8
 71
     3
 72
    10
 73
     6
 74
     0
 42
0.000000001
 43
0.0000000001
 40
0.0
 40
0.0
 40
0.0
 40
0.0
 40
0.0725221132948549
 40
0.0725221132948549
 40
0.1562492067605822
 40
0.1562492067605822
 40
0.1562492067605822
 40
0.1562492067605822
 10
-2.25565701463632
 20
3.224492337555005
 30
0.0
 10
-2.24946333661096
 20
3.201125214189483
 30
0.0
 10
-2.23692871234851
 20
3.155588173237132
 30
0.0
 10
-2.194905238236655
 20
3.045962523444601
 30
0.0
 10
-2.173517342882538
 20
3.00735579009861
 30
0.0
 10
-2.162446046495053
 20
2.991812304052529
 30
0.0
  0
LINE
  5
188
330
1F
100
AcDbEntity
  8
0
100
AcDbLine
 10
-2.162446046495053
 20
2.991812304052529
 30
0.0
 11
-2.146132885487947
 21
2.9693118751079
 31
0.0
  0
ARC
  5
189
330
1F
100
AcDbEntity
  8
0
100
AcDbCircle
 10
-2.186309066638931
 20
2.940183518782804
 30
0.0
 40
0.0496244564109118
100
AcDbArc
 50
306.7193182670743
 51
35.9426960914624
  0
ARC
  5
190
330
1F
100
AcDbEntity
  8
0
100
AcDbCircle
 10
0.002697940025314
 20
0.005470883013714
 30
0.0
 40
3.61156249999652
100
AcDbArc
 50
126.7193182670732
 51
128.2806817329278
  0
ARC
  5
191
330
1F
100
AcDbEntity
  8
0
100
AcDbCircle
 10
-2.265460084413402
 20
2.87944880671845
 30
0.0
 40
0.0496244564109113
100
AcDbArc
 50
219.0573039085392
 51
308.2806817329301
  0
LINE
  5
192
330
1F
100
AcDbEntity
  8
0
100
AcDbLine
 10
-2.303994276906525
 20
2.848180569112512
 30
0.0
 11
-2.321505865572262
 21
2.869761412171533
 31
0.0
  0
SPLINE
  5
193
330
1F
100
AcDbEntity
  8
0
100
AcDbSpline
210
0.0
220
0.0
230
1.0
 70
     8
 71
     3
 72
    10
 73
     6
 74
     0
 42
0.000000001
 43
0.0000000001
 40
0.0
 40
0.0
 40
0.0
 40
0.0
 40
0.057448289840111
 40
0.057448289840111
 40
0.1060658840139574
 40
0.1060658840139574
 40
0.1060658840139574
 40
0.1060658840139574
 10
-2.321505865572262
 20
2.869761412171533
 30
0.0
 10
-2.333696335538942
 20
2.884529387973083
 30
0.0
 10
-2.36556237823731
 20
2.915268697675708
 30
0.0
 10
-2.459797912943439
 20
2.983616108740193
 30
0.0
 10
-2.500090868275939
 20
3.007386217016328
 30
0.0
 10
-2.522706957541847
 20
3.020347589944985
 30
0.0
  0
ARC
  5
194
330
1F
100
AcDbEntity
  8
0
100
AcDbCircle
 10
-2.54796646532454
 20
2.97627268476555
 30
0.0
 40
0.050800000000001
100
AcDbArc
 50
60.18280222715562
 51
130.5666033913035
  0
ARC
  5
195
330
1F
100
AcDbEntity
  8
0
100
AcDbCircle
 10
0.0
 20
0.0
 30
0.0
 40
3.968749999999997
100
AcDbArc
 50
130.5666033913035
 51
131.7811959768915
  0
ARC
  5
196
330
1F
100
AcDbEntity
  8
0
100
AcDbCircle
 10
-2.610482188108486
 20
2.921594589957395
 30
0.0
 40
0.0507999999999977
100
AcDbArc
 50
131.7811959768797
 51
202.3119170340277
  0
SPLINE
  5
197
330
1F
100
AcDbEntity
  8
0
100
AcDbSpline
210
0.0
220
0.0
230
1.0
 70
     8
 71
     3
 72
    10
 73
     6
 74
     0
 42
0.000000001
 43
0.0000000001
 40
0.0
 40
0.0
 40
0.0
 40
0.0
 40
0.0793364953576464
 40
0.0793364953576464
 40
0.173524404312384
 40
0.173524404312384
 40
0.173524404312384
 40
0.173524404312384
 10
-2.657478831464532
 20
2.902308441734782
 30
0.0
 10
-2.64743883533537
 20
2.877842897266485
 30
0.0
 10
-2.629145261061984
 20
2.834887913233306
 30
0.0
 10
-2.573785769775851
 20
2.732711219614139
 30
0.0
 10
-2.547455496282431
 20
2.697083524251732
 30
0.0
 10
-2.534396893208937
 20
2.683060991592046
 30
0.0
  0
LINE
  5
198
330
1F
100
AcDbEntity
  8
0
100
AcDbLine
 10
-2.534396893208937
 20
2.683060991592046
 30
0.0
 11
-2.515286398242218
 21
2.662882351725517
 31
0.0
  0
ARC
  5
199
330
1F
100
AcDbEntity
  8
0
100
AcDbCircle
 10
-2.551316853157241
 20
2.628759148583154
 30
0.0
 40
0.0496244564109114
100
AcDbArc
 50
314.2193182670741
 51
43.442696091462
  0
ARC
  5
200
330
1F
100
AcDbEntity
  8
0
100
AcDbCircle
 10
0.0020197607220376
 20
0.0048761355602593
 30
0.0
 40
3.611562500001805
100
AcDbArc
 50
134.2193182670743
 51
135.7806817329262
  0
ARC
  5
201
330
1F
100
AcDbEntity
  8
0
100
AcDbCircle
 10
-2.621863252300905
 20
2.55821274943949
 30
0.0
 40
0.0496244564109113
100
AcDbArc
 50
226.5573039085402
 51
315.7806817329687
  0
LINE
  5
202
330
1F
100
AcDbEntity
  8
0
100
AcDbLine
 10
-2.655986455443267
 20
2.522182294524465
 30
0.0
 11
-2.676165095309795
 21
2.541292789491183
 31
0.0
  0
SPLINE
  5
203
330
1F
100
AcDbEntity
  8
0
100
AcDbSpline
210
0.0
220
0.0
230
1.0
 70
     8
 71
     3
 72
    10
 73
     6
 74
     0
 42
0.000000001
 43
0.0000000001
 40
0.0
 40
0.0
 40
0.0
 40
0.0
 40
0.0576566667092274
 40
0.0576566667092274
 40
0.1062820669037325
 40
0.1062820669037325
 40
0.1062820669037325
 40
0.1062820669037325
 10
-2.676165095309795
 20
2.541292789491183
 30
0.0
 10
-2.690229712675813
 20
2.5543905843062
 30
0.0
 10
-2.725963769699183
 20
2.580785423959308
 30
0.0
 10
-2.828425264391034
 20
2.636256091792696
 30
0.0
 10
-2.871370361712642
 20
2.654521486652247
 30
0.0
 10
-2.895960071838069
 20
2.664599271917932
 30
0.0
  0
ARC
  5
204
330
1F
100
AcDbEntity
  8
0
100
AcDbCircle
 10
-2.915224679080911
 20
2.617593794494772
 30
0.0
 40
0.0508000000000019
100
AcDbArc
 50
67.71434210131386
 51
138.0791852303774
  0
ARC
  5
205
330
1F
100
AcDbEntity
  8
0
100
AcDbCircle
 10
0.0
 20
0.0
 30
0.0
 40
3.968749999999995
100
AcDbArc
 50
138.079185230378
 51
139.2873402044598
  0
ARC
  5
206
330
1F
100
AcDbEntity
  8
0
100
AcDbCircle
 10
-2.969767834223309
 20
2.555545189057041
 30
0.0
 40
0.0507999999999945
100
AcDbArc
 50
139.2873402044579
 51
209.780866563298
  0
SPLINE
  5
207
330
1F
100
AcDbEntity
  8
0
100
AcDbSpline
210
0.0
220
0.0
230
1.0
 70
     8
 71
     3
 72
    10
 73
     6
 74
     0
 42
0.000000001
 43
0.0000000001
 40
0.0
 40
0.0
 40
0.0
 40
0.0
 40
0.0812382382576533
 40
0.0812382382576533
 40
0.178198323557983
 40
0.178198323557983
 40
0.178198323557983
 40
0.178198323557983
 10
-3.013858747575191
 20
2.530313634214011
 30
0.0
 10
-3.000408832455405
 20
2.506810562536173
 30
0.0
 10
-2.976727511767093
 20
2.466744707192711
 30
0.0
 10
-2.908542021802502
 20
2.372643261970619
 30
0.0
 10
-2.87769488819014
 20
2.34064291256805
 30
0.0
 10
-2.862865515708644
 20
2.328401761696094
 30
0.0
  0
LINE
  5
208
330
1F
100
AcDbEntity
  8
0
100
AcDbLine
 10
-2.862865515708644
 20
2.328401761696095
 30
0.0
 11
-2.841284672649624
 21
2.310890173030357
 31
0.0
  0
ARC
  5
209
330
1F
100
AcDbEntity
  8
0
100
AcDbCircle
 10
-2.872552910255559
 20
2.272355980537233
 30
0.0
 40
0.0496244564109109
100
AcDbArc
 50
321.7193182670748
 51
50.9426960914622
  0
ARC
  5
210
330
1F
100
AcDbEntity
  8
0
100
AcDbCircle
 10
0.0014250134557448
 20
0.0041979560935759
 30
0.0
 40
3.61156250000474
100
AcDbArc
 50
141.7193182670751
 51
143.280681732926
  0
ARC
  5
211
330
1F
100
AcDbEntity
  8
0
100
AcDbCircle
 10
-2.933287622319912
 20
2.193204962762762
 30
0.0
 40
0.0496244564109119
100
AcDbArc
 50
234.0573039085399
 51
323.2806817329457
  0
LINE
  5
212
330
1F
100
AcDbEntity
  8
0
100
AcDbLine
 10
-2.962415978645007
 20
2.153028781611777
 30
0.0
 11
-2.984916407589636
 21
2.169341942618883
 31
0.0
  0
SPLINE
  5
213
330
1F
100
AcDbEntity
  8
0
100
AcDbSpline
210
0.0
220
0.0
230
1.0
 70
     8
 71
     3
 72
    10
 73
     6
 74
     0
 42
0.000000001
 43
0.0000000001
 40
0.0
 40
0.0
 40
0.0
 40
0.0
 40
0.0578215519289627
 40
0.0578215519289627
 40
0.1062405275966798
 40
0.1062405275966798
 40
0.1062405275966798
 40
0.1062405275966798
 10
-2.984916407589636
 20
2.169341942618883
 30
0.0
 10
-3.000615072148054
 20
2.180523769378875
 30
0.0
 10
-3.039601296264687
 20
2.202079683257461
 30
0.0
 10
-3.148337452279956
 20
2.243625784975239
 30
0.0
 10
-3.193266115047736
 20
2.256145521187238
 30
0.0
 10
-3.219522218018044
 20
2.263061801494653
 30
0.0
  0
ARC
  5
214
330
1F
100
AcDbEntity
  8
0
100
AcDbCircle
 10
-3.232462339984107
 20
2.213937538207521
 30
0.0
 40
0.0508000000000011
100
AcDbArc
 50
75.24260201035827
 51
145.5924659736377
  0
ARC
  5
215
330
1F
100
AcDbEntity
  8
0
100
AcDbCircle
 10
0.0
 20
0.0
 30
0.0
 40
3.968749999999989
100
AcDbArc
 50
145.5924659736375
 51
146.7950685519356
  0
ARC
  5
216
330
1F
100
AcDbEntity
  8
0
100
AcDbCircle
 10
-3.278216081610168
 20
2.145607495506216
 30
0.0
 40
0.0507999999999897
100
AcDbArc
 50
146.7950685519332
 51
217.2532438389245
  0
SPLINE
  5
217
330
1F
100
AcDbEntity
  8
0
100
AcDbSpline
210
0.0
220
0.0
230
1.0
 70
     8
 71
     3
 72
    10
 73
     6
 74
     0
 42
0.000000001
 43
0.0000000001
 40
0.0
 40
0.0
 40
0.0
 40
0.0
 40
0.0814696053968332
 40
0.0814696053968332
 40
0.1787597528105082
 40
0.1787597528105082
 40
0.1787597528105082
 40
0.1787597528105082
 10
-3.318651242402598
 20
2.114856271600649
 30
0.0
 10
-3.302212331135824
 20
2.093240545918781
 30
0.0
 10
-3.273442162907941
 20
2.056505864658765
 30
0.0
 10
-3.193423782845433
 20
1.971912953240627
 30
0.0
 10
-3.158576488161884
 20
1.944131564647319
 30
0.0
 10
-3.1422317247945
 20
1.933902932118304
 30
0.0
  0
LINE
  5
218
330
1F
100
AcDbEntity
  8
0
100
AcDbLine
 10
-3.1422317247945
 20
1.933902932118304
 30
0.0
 11
-3.118549787851257
 21
1.919358022790561
 31
0.0
  0
ARC
  5
219
330
1F
100
AcDbEntity
  8
0
100
AcDbCircle
 10
-3.144520799933477
 20
1.877072171663929
 30
0.0
 40
0.0496244564109123
100
AcDbArc
 50
329.2193182670749
 51
58.44269609146058
  0
ARC
  5
220
330
1F
100
AcDbEntity
  8
0
100
AcDbCircle
 10
0.0009238745095201
 20
0.0034479484556651
 30
0.0
 40
3.611562499997431
100
AcDbArc
 50
149.2193182670734
 51
150.7806817329277
  0
ARC
  5
221
330
1F
100
AcDbEntity
  8
0
100
AcDbCircle
 10
-3.194404637156253
 20
1.790670831117581
 30
0.0
 40
0.0496244564109121
100
AcDbArc
 50
241.5573039085405
 51
330.7806817329201
  0
LINE
  5
222
330
1F
100
AcDbEntity
  8
0
100
AcDbLine
 10
-3.218039752411452
 20
1.747036349329069
 30
0.0
 11
-3.24247698185664
 21
1.760273053668867
 31
0.0
  0
SPLINE
  5
223
330
1F
100
AcDbEntity
  8
0
100
AcDbSpline
210
0.0
220
0.0
230
1.0
 70
     8
 71
     3
 72
    10
 73
     6
 74
     0
 42
0.000000001
 43
0.0000000001
 40
0.0
 40
0.0
 40
0.0
 40
0.0
 40
0.0579512895108367
 40
0.0579512895108367
 40
0.1064739813701213
 40
0.1064739813701213
 40
0.1064739813701213
 40
0.1064739813701213
 10
-3.242476981856641
 20
1.760273053668867
 30
0.0
 10
-3.259539060906615
 20
1.769330408460542
 30
0.0
 10
-3.301100472196385
 20
1.785642737995626
 30
0.0
 10
-3.41455455780873
 20
1.812660976497686
 30
0.0
 10
-3.460843894167314
 20
1.819210102221796
 30
0.0
 10
-3.487814148543221
 20
1.822633195578497
 30
0.0
  0
ARC
  5
224
330
1F
100
AcDbEntity
  8
0
100
AcDbCircle
 10
-3.494210425696383
 20
1.772237485060837
 30
0.0
 40
0.0507999999999986
100
AcDbArc
 50
82.76663395838326
 51
153.1062161474947
  0
ARC
  5
225
330
1F
100
AcDbEntity
  8
0
100
AcDbCircle
 10
0.0
 20
0.0
 30
0.0
 40
3.968750000000006
100
AcDbArc
 50
153.1062161474949
 51
154.3042510856343
  0
ARC
  5
226
330
1F
100
AcDbEntity
  8
0
100
AcDbCircle
 10
-3.530500768077768
 20
1.698792668074108
 30
0.0
 40
0.0508000000000004
100
AcDbArc
 50
154.304251085633
 51
224.7299831123437
  0
SPLINE
  5
227
330
1F
100
AcDbEntity
  8
0
100
AcDbSpline
210
0.0
220
0.0
230
1.0
 70
     8
 71
     3
 72
    10
 73
     6
 74
     0
 42
0.000000001
 43
0.0000000001
 40
0.0
 40
0.0
 40
0.0
 40
0.0
 40
0.0815780114624762
 40
0.0815780114624762
 40
0.1790108852602785
 40
0.1790108852602785
 40
0.1790108852602785
 40
0.1790108852602785
 10
-3.566590677471677
 20
1.663041326281954
 30
0.0
 10
-3.547453385014202
 20
1.643722802382899
 30
0.0
 10
-3.514069199354399
 20
1.610974082204803
 30
0.0
 10
-3.423546894340881
 20
1.53738986826952
 30
0.0
 10
-3.385293269524975
 20
1.514339425264796
 30
0.0
 10
-3.367715487174097
 20
1.506314487208494
 30
0.0
  0
LINE
  5
228
330
1F
100
AcDbEntity
  8
0
100
AcDbLine
 10
-3.367715487174097
 20
1.506314487208494
 30
0.0
 11
-3.342337660853603
 21
1.494985124649952
 31
0.0
  0
ARC
  5
229
330
1F
100
AcDbEntity
  8
0
100
AcDbCircle
 10
-3.362567076194853
 20
1.449671137526442
 30
0.0
 40
0.049624456410912
100
AcDbArc
 50
336.7193182670736
 51
65.94269609146244
  0
ARC
  5
230
330
1F
100
AcDbEntity
  8
0
100
AcDbCircle
 10
0.0005249185277987
 20
0.0026389454734006
 30
0.0
 40
3.611562500001642
100
AcDbArc
 50
156.7193182670746
 51
158.2806817329271
  0
ARC
  5
231
330
1F
100
AcDbEntity
  8
0
100
AcDbCircle
 10
-3.400746512290762
 20
1.357497825099942
 30
0.0
 40
0.0496244564109117
100
AcDbArc
 50
249.0573039085404
 51
338.2806817329213
  0
LINE
  5
232
330
1F
100
AcDbEntity
  8
0
100
AcDbLine
 10
-3.418483983101157
 20
1.31115164075507
 30
0.0
 11
-3.444439885275818
 21
1.321085404746399
 31
0.0
  0
SPLINE
  5
233
330
1F
100
AcDbEntity
  8
0
100
AcDbSpline
210
0.0
220
0.0
230
1.0
 70
     8
 71
     3
 72
    10
 73
     6
 74
     0
 42
0.000000001
 43
0.0000000001
 40
0.0
 40
0.0
 40
0.0
 40
0.0
 40
0.0580789218368636
 40
0.0580789218368636
 40
0.096630596128143
 40
0.096630596128143
 40
0.096630596128143
 40
0.096630596128143
 10
-3.444439885275818
 20
1.321085404746399
 30
0.0
 10
-3.462578077801397
 20
1.327853096859814
 30
0.0
 10
-3.506000259969837
 20
1.338613109936192
 30
0.0
 10
-3.611182155923505
 20
1.349450345447399
 30
0.0
 10
-3.654130415679212
 20
1.35109698310813
 30
0.0
 10
-3.696210977409209
 20
1.350887226196036
 30
0.0
  0
ARC
  5
234
330
1F
100
AcDbEntity
  8
0
100
AcDbCircle
 10
-3.695957760286628
 20
1.300087857291601
 30
0.0
 40
0.0507999999999994
100
AcDbArc
 50
90.28559709653658
 51
160.6201983911603
  0
ARC
  5
235
330
1F
100
AcDbEntity
  8
0
100
AcDbCircle
 10
0.0
 20
0.0
 30
0.0
 40
3.968750000000002
100
AcDbArc
 50
160.6201983911604
 51
161.814732888131
  0
ARC
  5
236
330
1F
100
AcDbEntity
  8
0
100
AcDbCircle
 10
-3.722257538503137
 20
1.222755502770914
 30
0.0
 40
0.0508000000000049
100
AcDbArc
 50
161.8147328881319
 51
232.2119028163133
  0
SPLINE
  5
237
330
1F
100
AcDbEntity
  8
0
100
AcDbSpline
210
0.0
220
0.0
230
1.0
 70
     8
 71
     3
 72
    10
 73
     6
 74
     0
 42
0.000000001
 43
0.0000000001
 40
0.0
 40
0.0
 40
0.0
 40
0.0
 40
0.1260416601039689
 40
0.1260416601039689
 40
0.3158948733833927
 40
0.3158948733833927
 40
0.3158948733833927
 40
0.3158948733833927
 10
-3.753384877365484
 20
1.182609160778788
 30
0.0
 10
-3.720182045398358
 20
1.156865450379656
 30
0.0
 10
-3.685046632312735
 20
1.131978296500599
 30
0.0
 10
-3.594981445783168
 20
1.076528676691661
 30
0.0
 10
-3.553972975488068
 20
1.058626579872715
 30
0.0
 10
-3.535458713157211
 20
1.052952583808988
 30
0.0
  0
LINE
  5
238
330
1F
100
AcDbEntity
  8
0
100
AcDbLine
 10
-3.535458713157211
 20
1.052952583808988
 30
0.0
 11
-3.508819219103872
 21
1.045032616554116
 31
0.0
  0
ARC
  5
239
330
1F
100
AcDbEntity
  8
0
100
AcDbCircle
 10
-3.522960906799011
 20
0.9974658283168217
 30
0.0
 40
0.0496244564109112
100
AcDbArc
 50
344.2193182670736
 51
73.44269609146208
  0
ARC
  5
240
330
1F
100
AcDbEntity
  8
0
100
AcDbCircle
 10
0.000234971741174
 20
0.0017847894211385
 30
0.0
 40
3.611562499998026
100
AcDbArc
 50
164.2193182670732
 51
165.7806817329267
  0
ARC
  5
241
330
1F
100
AcDbEntity
  8
0
100
AcDbCircle
 10
-3.548782681031108
 20
0.901097654941058
 30
0.0
 40
0.0496244564109112
100
AcDbArc
 50
256.5573039085396
 51
345.78068173297
  0
LINE
  5
242
330
1F
100
AcDbEntity
  8
0
100
AcDbLine
 10
-3.560319014353379
 20
0.8528327641035568
 30
0.0
 11
-3.587349476574969
 21
0.8592936182903653
 31
0.0
  0
SPLINE
  5
243
330
1F
100
AcDbEntity
  8
0
100
AcDbSpline
210
0.0
220
0.0
230
1.0
 70
     8
 71
     3
 72
    10
 73
     6
 74
     0
 42
0.000000001
 43
0.0000000001
 40
0.0
 40
0.0
 40
0.0
 40
0.0
 40
0.0581503584015736
 40
0.0581503584015736
 40
0.0967827814487252
 40
0.0967827814487252
 40
0.0967827814487252
 40
0.0967827814487252
 10
-3.587349476574969
 20
0.8592936182903649
 30
0.0
 10
-3.606239060911344
 20
0.8636412436271571
 30
0.0
 10
-3.650748003640775
 20
0.8686432779606372
 30
0.0
 10
-3.756586803404592
 20
0.8656392527293169
 30
0.0
 10
-3.799777844433849
 20
0.8616040065288439
 30
0.0
 10
-3.841123742388248
 20
0.8559411954062545
 30
0.0
  0
ARC
  5
244
330
1F
100
AcDbEntity
  8
0
100
AcDbCircle
 10
-3.834230433705102
 20
0.8056110623307434
 30
0.0
 40
0.0507999999999978
100
AcDbArc
 50
97.79881333503388
 51
168.1341717143824
  0
ARC
  5
245
330
1F
100
AcDbEntity
  8
0
100
AcDbCircle
 10
0.0
 20
0.0
 30
0.0
 40
3.968750000000008
100
AcDbArc
 50
168.1341717143824
 51
169.3263365052664
  0
ARC
  5
246
330
1F
100
AcDbEntity
  8
0
100
AcDbCircle
 10
-3.850161770205267
 20
0.7256628320024948
 30
0.0
 40
0.050800000000007
100
AcDbArc
 50
169.3263365052669
 51
239.6996525528014
  0
SPLINE
  5
247
330
1F
100
AcDbEntity
  8
0
100
AcDbSpline
210
0.0
220
0.0
230
1.0
 70
     8
 71
     3
 72
    10
 73
     6
 74
     0
 42
0.000000001
 43
0.0000000001
 40
0.0
 40
0.0
 40
0.0
 40
0.0
 40
0.1250769927697198
 40
0.1250769927697198
 40
0.3133269408625744
 40
0.3133269408625744
 40
0.3133269408625744
 40
0.3133269408625744
 10
-3.875792039468914
 20
0.6818024934553192
 30
0.0
 10
-3.839795194013914
 20
0.660767342514531
 30
0.0
 10
-3.801397346003846
 20
0.6404870854896832
 30
0.0
 10
-3.704750294127822
 20
0.597200590205039
 30
0.0
 10
-3.661709416861306
 20
0.5847868694717615
 30
0.0
 10
-3.642591269640062
 20
0.5815743697826141
 30
0.0
  0
LINE
  5
248
330
1F
100
AcDbEntity
  8
0
100
AcDbLine
 10
-3.642591269640062
 20
0.5815743697826141
 30
0.0
 11
-3.615145916982997
 21
0.5771993106669737
 31
0.0
  0
ARC
  5
249
330
1F
100
AcDbEntity
  8
0
100
AcDbCircle
 10
-3.622957908834744
 20
0.5281936022506397
 30
0.0
 40
0.0496244564109125
100
AcDbArc
 50
351.7193182670748
 51
80.94269609146142
  0
ARC
  5
250
330
1F
100
AcDbEntity
  8
0
100
AcDbCircle
 10
0.0000589952377368
 20
0.0009000951404177
 30
0.0
 40
3.611562500005754
100
AcDbArc
 50
171.7193182670752
 51
173.2806817329256
  0
ARC
  5
251
330
1F
100
AcDbEntity
  8
0
100
AcDbCircle
 10
-3.635980203486769
 20
0.4292794540903771
 30
0.0
 40
0.049624456410911
100
AcDbArc
 50
264.0573039085384
 51
353.2806817329477
  0
LINE
  5
252
330
1F
100
AcDbEntity
  8
0
100
AcDbLine
 10
-3.641118009459295
 20
0.3799216824240315
 30
0.0
 11
-3.668760533024942
 21
0.3827990797998959
 31
0.0
  0
SPLINE
  5
253
330
1F
100
AcDbEntity
  8
0
100
AcDbSpline
210
0.0
220
0.0
230
1.0
 70
     8
 71
     3
 72
    10
 73
     6
 74
     0
 42
0.000000001
 43
0.0000000001
 40
0.0
 40
0.0
 40
0.0
 40
0.0
 40
0.0581873389147936
 40
0.0581873389147936
 40
0.0968617032453491
 40
0.0968617032453491
 40
0.0968617032453491
 40
0.0968617032453491
 10
-3.668760533024942
 20
0.3827990797998957
 30
0.0
 10
-3.688068264208365
 20
0.3846450983059773
 30
0.0
 10
-3.732877203372276
 20
0.3837920761214057
 30
0.0
 10
-3.837491381524749
 20
0.3669790611586202
 30
0.0
 10
-3.879983078040297
 20
0.3572826952155425
 30
0.0
 10
-3.920062449630295
 20
0.3463138543593446
 30
0.0
  0
ARC
  5
254
330
1F
100
AcDbEntity
  8
0
100
AcDbCircle
 10
-3.906652733394454
 20
0.2973156961238119
 30
0.0
 40
0.0508000000000008
100
AcDbArc
 50
105.3058060682767
 51
175.6478957914135
  0
ARC
  5
255
330
1F
100
AcDbEntity
  8
0
100
AcDbCircle
 10
0.0
 20
0.0
 30
0.0
 40
3.968749999999995
100
AcDbArc
 50
175.6478957914135
 51
176.8388648031553
  0
ARC
  5
256
330
1F
100
AcDbEntity
  8
0
100
AcDbCircle
 10
-3.911988444359895
 20
0.2160523401741478
 30
0.0
 40
0.050799999999982
100
AcDbArc
 50
176.8388648031393
 51
247.1936768298645
  0
SPLINE
  5
257
330
1F
100
AcDbEntity
  8
0
100
AcDbSpline
210
0.0
220
0.0
230
1.0
 70
     8
 71
     3
 72
    10
 73
     6
 74
     0
 42
0.000000001
 43
0.0000000001
 40
0.0
 40
0.0
 40
0.0
 40
0.0
 40
0.1246205875923818
 40
0.1246205875923818
 40
0.3121117377638331
 40
0.3121117377638331
 40
0.3121117377638331
 40
0.3121117377638331
 10
-3.931679404268558
 20
0.1692238648853324
 30
0.0
 10
-3.89338680514423
 20
0.1531221654491381
 30
0.0
 10
-3.85251055190384
 20
0.1379563847284352
 30
0.0
 10
-3.750980754127132
 20
0.1076301546838089
 30
0.0
 10
-3.706664497124179
 20
0.1009352282953833
 30
0.0
 10
-3.687280088878471
 20
0.1002452570621436
 30
0.0
  0
LINE
  5
258
330
1F
100
AcDbEntity
  8
0
100
AcDbLine
 10
-3.687280088878471
 20
0.1002452570621436
 30
0.0
 11
-3.65949847521093
 21
0.0994899645601977
 31
0.0
  0
ARC
  5
259
330
1F
100
AcDbEntity
  8
0
100
AcDbCircle
 10
-3.660847105872809
 20
0.0498838372227781
 30
0.0
 40
0.0496244564109115
100
AcDbArc
 50
359.2193182670738
 51
88.44269609146087
  0
ARC
  5
260
330
1F
100
AcDbEntity
  8
0
100
AcDbCircle
 10
0.0
 20
0.0
 30
0.0
 40
3.611562499999999
100
AcDbArc
 50
179.2193182670737
 51
180.7806817329257
  0
ARC
  5
261
330
1F
100
AcDbEntity
  8
0
100
AcDbCircle
 10
-3.660847105872809
 20
-0.0498838372227782
 30
0.0
 40
0.0496244564109116
100
AcDbArc
 50
271.5573039085391
 51
0.7806817329514369
  0
LINE
  5
262
330
1F
100
AcDbEntity
  8
0
100
AcDbLine
 10
-3.65949847521093
 20
-0.0994899645601979
 30
0.0
 11
-3.687280088878471
 21
-0.1002452570621437
 31
0.0
  0
SPLINE
  5
263
330
1F
100
AcDbEntity
  8
0
100
AcDbSpline
210
0.0
220
0.0
230
1.0
 70
     8
 71
     3
 72
    10
 73
     6
 74
     0
 42
0.000000001
 43
0.0000000001
 40
0.0
 40
0.0
 40
0.0
 40
0.0
 40
0.0581900514696725
 40
0.0581900514696725
 40
0.0968674951758889
 40
0.0968674951758889
 40
0.0968674951758889
 40
0.0968674951758889
 10
-3.687280088878471
 20
-0.1002452570621436
 30
0.0
 10
-3.706664497124157
 20
-0.1009352282953825
 30
0.0
 10
-3.750980754127102
 20
-0.1076301546837978
 30
0.0
 10
-3.852510551903784
 20
-0.1379563847284195
 30
0.0
 10
-3.893386805143959
 20
-0.1531221654490257
 30
0.0
 10
-3.931679404268548
 20
-0.1692238648853278
 30
0.0
  0
ARC
  5
264
330
1F
100
AcDbEntity
  8
0
100
AcDbCircle
 10
-3.911988444359884
 20
-0.2160523401741452
 30
0.0
 40
0.0507999999999998
100
AcDbArc
 50
112.8063231701343
 51
183.1611351968444
  0
ARC
  5
265
330
1F
100
AcDbEntity
  8
0
100
AcDbCircle
 10
0.0
 20
0.0
 30
0.0
 40
3.968749999999999
100
AcDbArc
 50
183.1611351968444
 51
184.3521042073691
  0
ARC
  5
266
330
1F
100
AcDbEntity
  8
0
100
AcDbCircle
 10
-3.90665273340077
 20
-0.2973156960408102
 30
0.0
 40
0.0508000000000078
100
AcDbArc
 50
184.3521042073701
 51
254.6941939184774
  0
SPLINE
  5
267
330
1F
100
AcDbEntity
  8
0
100
AcDbSpline
210
0.0
220
0.0
230
1.0
 70
     8
 71
     3
 72
    10
 73
     6
 74
     0
 42
0.000000001
 43
0.0000000001
 40
0.0
 40
0.0
 40
0.0
 40
0.0
 40
0.1246597096910651
 40
0.1246597096910651
 40
0.3122159086414871
 40
0.3122159086414871
 40
0.3122159086414871
 40
0.3122159086414871
 10
-3.920062449647938
 20
-0.3463138542732429
 30
0.0
 10
-3.879983078383819
 20
-0.357282695050224
 30
0.0
 10
-3.837491381498652
 20
-0.3669790611024122
 30
0.0
 10
-3.732877203208177
 20
-0.3837920761029188
 30
0.0
 10
-3.688068263991706
 20
-0.3846450982925229
 30
0.0
 10
-3.668760532785198
 20
-0.382799079784232
 30
0.0
  0
LINE
  5
268
330
1F
100
AcDbEntity
  8
0
100
AcDbLine
 10
-3.668760532785198
 20
-0.382799079784232
 30
0.0
 11
-3.641118009219551
 21
-0.379921682408368
 31
0.0
  0
ARC
  5
269
330
1F
100
AcDbEntity
  8
0
100
AcDbCircle
 10
-3.635980203247025
 20
-0.4292794540747137
 30
0.0
 40
0.0496244564109116
100
AcDbArc
 50
6.719318267073416
 51
95.94269609146152
  0
ARC
  5
270
330
1F
100
AcDbEntity
  8
0
100
AcDbCircle
 10
0.0000589954687804
 20
-0.0009000951258515
 30
0.0
 40
3.611562499996984
100
AcDbArc
 50
186.719318267073
 51
188.2806817329271
  0
ARC
  5
271
330
1F
100
AcDbEntity
  8
0
100
AcDbCircle
 10
-3.622957908594996
 20
-0.5281936022349756
 30
0.0
 40
0.0496244564109117
100
AcDbArc
 50
279.057303908538
 51
8.280681732950187
  0
LINE
  5
272
330
1F
100
AcDbEntity
  8
0
100
AcDbLine
 10
-3.61514591674325
 20
-0.577199310651309
 30
0.0
 11
-3.642591269400314
 21
-0.5815743697669502
 31
0.0
  0
SPLINE
  5
273
330
1F
100
AcDbEntity
  8
0
100
AcDbSpline
210
0.0
220
0.0
230
1.0
 70
     8
 71
     3
 72
    10
 73
     6
 74
     0
 42
0.000000001
 43
0.0000000001
 40
0.0
 40
0.0
 40
0.0
 40
0.0
 40
0.0581585193668427
 40
0.0581585193668427
 40
0.0968001911770667
 40
0.0968001911770667
 40
0.0968001911770667
 40
0.0968001911770667
 10
-3.642591269400314
 20
-0.5815743697669502
 30
0.0
 10
-3.661709416644479
 20
-0.5847868694599445
 30
0.0
 10
-3.704750293960329
 20
-0.5972005902117167
 30
0.0
 10
-3.801397345958331
 20
-0.6404870855676808
 30
0.0
 10
-3.839795194297679
 20
-0.6607673427937702
 30
0.0
 10
-3.875792039457778
 20
-0.6818024935732506
 30
0.0
  0
ARC
  5
274
330
1F
100
AcDbEntity
  8
0
100
AcDbCircle
 10
-3.850161770184115
 20
-0.7256628321145785
 30
0.0
 40
0.0508000000000036
100
AcDbArc
 50
120.3003474602796
 51
190.6736634964011
  0
ARC
  5
275
330
1F
100
AcDbEntity
  8
0
100
AcDbCircle
 10
0.0
 20
0.0
 30
0.0
 40
3.968749999999981
100
AcDbArc
 50
190.6736634964016
 51
191.8658282836537
  0
ARC
  5
276
330
1F
100
AcDbEntity
  8
0
100
AcDbCircle
 10
-3.834230433732705
 20
-0.8056110621993198
 30
0.0
 40
0.050799999999979
100
AcDbArc
 50
191.8658282836551
 51
262.201186638783
  0
SPLINE
  5
277
330
1F
100
AcDbEntity
  8
0
100
AcDbSpline
210
0.0
220
0.0
230
1.0
 70
     8
 71
     3
 72
    10
 73
     6
 74
     0
 42
0.000000001
 43
0.0000000001
 40
0.0
 40
0.0
 40
0.0
 40
0.0
 40
0.125195670286941
 40
0.125195670286941
 40
0.3136428996073552
 40
0.3136428996073552
 40
0.3136428996073552
 40
0.3136428996073552
 10
-3.84112374243885
 20
-0.8559411952716828
 30
0.0
 10
-3.799777845157843
 20
-0.8616040063212924
 30
0.0
 10
-3.75658680336094
 20
-0.8656392526423239
 30
0.0
 10
-3.650748003316263
 20
-0.8686432779121721
 30
0.0
 10
-3.606239060481373
 20
-0.863641243575077
 30
0.0
 10
-3.58734947609958
 20
-0.8592936182278307
 30
0.0
  0
LINE
  5
278
330
1F
100
AcDbEntity
  8
0
100
AcDbLine
 10
-3.58734947609958
 20
-0.8592936182278307
 30
0.0
 11
-3.56031901387799
 21
-0.8528327640410221
 31
0.0
  0
ARC
  5
279
330
1F
100
AcDbEntity
  8
0
100
AcDbCircle
 10
-3.54878268055572
 20
-0.9010976548785231
 30
0.0
 40
0.0496244564109111
100
AcDbArc
 50
14.21931826707289
 51
103.442696091461
  0
ARC
  5
280
330
1F
100
AcDbEntity
  8
0
100
AcDbCircle
 10
0.0002349722199928
 20
-0.0017847893576695
 30
0.0
 40
3.611562500001579
100
AcDbArc
 50
194.2193182670736
 51
195.7806817329259
  0
ARC
  5
281
330
1F
100
AcDbEntity
  8
0
100
AcDbCircle
 10
-3.522960906323622
 20
-0.9974658282542861
 30
0.0
 40
0.0496244564109123
100
AcDbArc
 50
286.5573039085396
 51
15.78068173294153
  0
LINE
  5
282
330
1F
100
AcDbEntity
  8
0
100
AcDbLine
 10
-3.508819218628482
 20
-1.045032616491581
 30
0.0
 11
-3.535458712681818
 21
-1.052952583746452
 31
0.0
  0
SPLINE
  5
283
330
1F
100
AcDbEntity
  8
0
100
AcDbSpline
210
0.0
220
0.0
230
1.0
 70
     8
 71
     3
 72
    10
 73
     6
 74
     0
 42
0.000000001
 43
0.0000000001
 40
0.0
 40
0.0
 40
0.0
 40
0.0
 40
0.0580925923430075
 40
0.0580925923430075
 40
0.0966596867024243
 40
0.0966596867024243
 40
0.0966596867024243
 40
0.0966596867024243
 10
-3.535458712681818
 20
-1.052952583746453
 30
0.0
 10
-3.553972975057245
 20
-1.058626579823835
 30
0.0
 10
-3.594981445444734
 20
-1.076528676692216
 30
0.0
 10
-3.685046632193198
 20
-1.131978296671263
 30
0.0
 10
-3.720182045888167
 20
-1.156865451041803
 30
0.0
 10
-3.753384877303235
 20
-1.182609161036589
 30
0.0
  0
ARC
  5
284
330
1F
100
AcDbEntity
  8
0
100
AcDbCircle
 10
-3.722257538423019
 20
-1.222755503014854
 30
0.0
 40
0.050799999999997
100
AcDbArc
 50
127.7880972091928
 51
198.1852671156238
  0
ARC
  5
285
330
1F
100
AcDbEntity
  8
0
100
AcDbCircle
 10
0.0
 20
0.0
 30
0.0
 40
3.96875000000001
100
AcDbArc
 50
198.1852671156237
 51
199.3798016066147
  0
ARC
  5
286
330
1F
100
AcDbEntity
  8
0
100
AcDbCircle
 10
-3.695957760337113
 20
-1.300087857148088
 30
0.0
 40
0.0508000000000081
100
AcDbArc
 50
199.3798016066076
 51
269.7144028651309
  0
SPLINE
  5
287
330
1F
100
AcDbEntity
  8
0
100
AcDbSpline
210
0.0
220
0.0
230
1.0
 70
     8
 71
     3
 72
    10
 73
     6
 74
     0
 42
0.000000001
 43
0.0000000001
 40
0.0
 40
0.0
 40
0.0
 40
0.0
 40
0.1262432504223373
 40
0.1262432504223373
 40
0.3164314067072825
 40
0.3164314067072825
 40
0.3164314067072825
 40
0.3164314067072825
 10
-3.69621097749368
 20
-1.350887226052353
 30
0.0
 10
-3.654130416798945
 20
-1.351096982987448
 30
0.0
 10
-3.611182155859432
 20
-1.349450345355266
 30
0.0
 10
-3.506000259488392
 20
-1.338613109846626
 30
0.0
 10
-3.462578077164132
 20
-1.327853096744552
 30
0.0
 10
-3.444439884572921
 20
-1.321085404606637
 30
0.0
  0
LINE
  5
288
330
1F
100
AcDbEntity
  8
0
100
AcDbLine
 10
-3.444439884572921
 20
-1.321085404606637
 30
0.0
 11
-3.418483982398257
 21
-1.311151640615308
 31
0.0
  0
ARC
  5
289
330
1F
100
AcDbEntity
  8
0
100
AcDbCircle
 10
-3.400746511587861
 20
-1.357497824960179
 30
0.0
 40
0.0496244564109108
100
AcDbArc
 50
21.71931826707328
 51
110.9426960914611
  0
ARC
  5
290
330
1F
100
AcDbEntity
  8
0
100
AcDbCircle
 10
0.000524919229826
 20
-0.0026389453339497
 30
0.0
 40
3.611562500000717
100
AcDbArc
 50
201.7193182670734
 51
203.2806817329261
  0
ARC
  5
291
330
1F
100
AcDbEntity
  8
0
100
AcDbCircle
 10
-3.362567075491952
 20
-1.449671137386678
 30
0.0
 40
0.049624456410912
100
AcDbArc
 50
294.0573039085392
 51
23.28068173293529
  0
LINE
  5
292
330
1F
100
AcDbEntity
  8
0
100
AcDbLine
 10
-3.342337660150701
 20
-1.494985124510188
 30
0.0
 11
-3.367715486471197
 21
-1.506314487068732
 31
0.0
  0
SPLINE
  5
293
330
1F
100
AcDbEntity
  8
0
100
AcDbSpline
210
0.0
220
0.0
230
1.0
 70
     8
 71
     3
 72
    10
 73
     6
 74
     0
 42
0.000000001
 43
0.0000000001
 40
0.0
 40
0.0
 40
0.0
 40
0.0
 40
0.0579689795583079
 40
0.0579689795583079
 40
0.1065048986274474
 40
0.1065048986274474
 40
0.1065048986274474
 40
0.1065048986274474
 10
-3.367715486471197
 20
-1.506314487068731
 30
0.0
 10
-3.38529326888063
 20
-1.51433942515178
 30
0.0
 10
-3.423546893818506
 20
-1.537389868242354
 30
0.0
 10
-3.514069199059111
 20
-1.610974082425012
 30
0.0
 10
-3.547453384820008
 20
-1.6437228027318
 30
0.0
 10
-3.566590677310162
 20
-1.66304132668871
 30
0.0
  0
ARC
  5
294
330
1F
100
AcDbEntity
  8
0
100
AcDbCircle
 10
-3.530500767893248
 20
-1.698792668457635
 30
0.0
 40
0.0507999999999949
100
AcDbArc
 50
135.27001692453
 51
205.6957489205894
  0
ARC
  5
295
330
1F
100
AcDbEntity
  8
0
100
AcDbCircle
 10
0.0
 20
0.0
 30
0.0
 40
3.968750000000024
100
AcDbArc
 50
205.6957489205897
 51
206.8937838505104
  0
ARC
  5
296
330
1F
100
AcDbEntity
  8
0
100
AcDbCircle
 10
-3.494210425758072
 20
-1.772237484939204
 30
0.0
 40
0.0508000000000238
100
AcDbArc
 50
206.8937838504981
 51
277.2333659923319
  0
SPLINE
  5
297
330
1F
100
AcDbEntity
  8
0
100
AcDbSpline
210
0.0
220
0.0
230
1.0
 70
     8
 71
     3
 72
    10
 73
     6
 74
     0
 42
0.000000001
 43
0.0000000001
 40
0.0
 40
0.0
 40
0.0
 40
0.0
 40
0.0815598537594616
 40
0.0815598537594616
 40
0.1789678605845519
 40
0.1789678605845519
 40
0.1789678605845519
 40
0.1789678605845519
 10
-3.487814148648261
 20
-1.822633195462366
 30
0.0
 10
-3.460843894183869
 20
-1.819210102118
 30
0.0
 10
-3.414554557606089
 20
-1.812660976391476
 30
0.0
 10
-3.301100471544716
 20
-1.785642737849659
 30
0.0
 10
-3.259539060064132
 20
-1.769330408254824
 30
0.0
 10
-3.242476980938259
 20
-1.760273053422839
 30
0.0
  0
LINE
  5
298
330
1F
100
AcDbEntity
  8
0
100
AcDbLine
 10
-3.242476980938259
 20
-1.760273053422839
 30
0.0
 11
-3.21803975149307
 21
-1.747036349083042
 31
0.0
  0
ARC
  5
299
330
1F
100
AcDbEntity
  8
0
100
AcDbCircle
 10
-3.19440463623787
 20
-1.790670830871552
 30
0.0
 40
0.0496244564109117
100
AcDbArc
 50
29.21931826707405
 51
118.4426960914612
  0
ARC
  5
300
330
1F
100
AcDbEntity
  8
0
100
AcDbCircle
 10
0.0009238754364795
 20
-0.0034479482046359
 30
0.0
 40
3.611562500007356
100
AcDbArc
 50
209.219318267075
 51
210.7806817329251
  0
ARC
  5
301
330
1F
100
AcDbEntity
  8
0
100
AcDbCircle
 10
-3.144520799015093
 20
-1.877072171417899
 30
0.0
 40
0.0496244564109119
100
AcDbArc
 50
301.5573039085398
 51
30.78068173293039
  0
LINE
  5
302
330
1F
100
AcDbEntity
  8
0
100
AcDbLine
 10
-3.118549786932872
 20
-1.919358022544531
 30
0.0
 11
-3.142231723876114
 21
-1.933902931872275
 31
0.0
  0
SPLINE
  5
303
330
1F
100
AcDbEntity
  8
0
100
AcDbSpline
210
0.0
220
0.0
230
1.0
 70
     8
 71
     3
 72
    10
 73
     6
 74
     0
 42
0.000000001
 43
0.0000000001
 40
0.0
 40
0.0
 40
0.0
 40
0.0
 40
0.0578444979769517
 40
0.0578444979769517
 40
0.1062827884891488
 40
0.1062827884891488
 40
0.1062827884891488
 40
0.1062827884891488
 10
-3.142231723876114
 20
-1.933902931872275
 30
0.0
 10
-3.158576487315952
 20
-1.944131564446612
 30
0.0
 10
-3.193423782143576
 20
-1.971912953173312
 30
0.0
 10
-3.273442162466063
 20
-2.056505864958566
 30
0.0
 10
-3.302212330805646
 20
-2.093240546409589
 30
0.0
 10
-3.318651242089429
 20
-2.114856272150433
 30
0.0
  0
ARC
  5
304
330
1F
100
AcDbEntity
  8
0
100
AcDbCircle
 10
-3.278216081271919
 20
-2.14560749602302
 30
0.0
 40
0.0507999999999999
100
AcDbArc
 50
142.7467562078059
 51
213.2049314570973
  0
ARC
  5
305
330
1F
100
AcDbEntity
  8
0
100
AcDbCircle
 10
0.0
 20
0.0
 30
0.0
 40
3.968749999999999
100
AcDbArc
 50
213.2049314570969
 51
214.4075340250865
  0
ARC
  5
306
330
1F
100
AcDbEntity
  8
0
100
AcDbCircle
 10
-3.232462340033432
 20
-2.213937538135549
 30
0.0
 40
0.0507999999999851
100
AcDbArc
 50
214.4075340250868
 51
284.7573979310105
  0
SPLINE
  5
307
330
1F
100
AcDbEntity
  8
0
100
AcDbSpline
210
0.0
220
0.0
230
1.0
 70
     8
 71
     3
 72
    10
 73
     6
 74
     0
 42
0.000000001
 43
0.0000000001
 40
0.0
 40
0.0
 40
0.0
 40
0.0
 40
0.0814552694406646
 40
0.0814552694406646
 40
0.1787284980973744
 40
0.1787284980973744
 40
0.1787284980973744
 40
0.1787284980973744
 10
-3.219522218117639
 20
-2.263061801435921
 30
0.0
 10
-3.19326611507823
 20
-2.256145521139026
 30
0.0
 10
-3.148337452031806
 20
-2.243625784889156
 30
0.0
 10
-3.039601295460423
 20
-2.202079683044388
 30
0.0
 10
-3.00061507111819
 20
-2.180523769062277
 30
0.0
 10
-2.984916406471485
 20
-2.169341942239371
 30
0.0
  0
LINE
  5
308
330
1F
100
AcDbEntity
  8
0
100
AcDbLine
 10
-2.984916406471485
 20
-2.169341942239371
 30
0.0
 11
-2.962415977526855
 21
-2.153028781232266
 31
0.0
  0
ARC
  5
309
330
1F
100
AcDbEntity
  8
0
100
AcDbCircle
 10
-2.933287621201761
 20
-2.19320496238325
 30
0.0
 40
0.0496244564109113
100
AcDbArc
 50
36.71931826707304
 51
125.942696091461
  0
ARC
  5
310
330
1F
100
AcDbEntity
  8
0
100
AcDbCircle
 10
0.001425014537475
 20
-0.004197955741545
 30
0.0
 40
3.611562499959113
100
AcDbArc
 50
216.7193182670697
 51
217.381973060653
  0
ARC
  5
311
330
1F
100
AcDbEntity
  8
0
100
AcDbCircle
 10
-2.767428138627539
 20
-2.119765972215955
 30
0.0
 40
0.1269999999999999
100
AcDbArc
 50
217.3819730606679
 51
265.1553473975504
  0
LINE
  5
312
330
1F
100
AcDbEntity
  8
0
100
AcDbLine
 10
-2.778153849908779
 20
-2.246312244849768
 30
0.0
 11
0.3255952661226468
 21
-2.50937741630912
 31
0.0
  0
ARC
  5
313
330
1F
100
AcDbEntity
  8
0
100
AcDbCircle
 10
0.2451524315133492
 20
-3.458474461062722
 30
0.0
 40
0.9525000000000003
100
AcDbArc
 50
19.99999999999957
 51
85.15534739755059
  0
LINE
  5
314
330
1F
100
AcDbEntity
  8
0
100
AcDbLine
 10
1.140209652811929
 20
-3.13270027454503
 30
0.0
 11
2.597222228681749
 21
-7.135809426608861
 31
0.0
  0
ARC
  5
315
330
1F
100
AcDbEntity
  8
0
100
AcDbCircle
 10
-2.176416284910665
 20
-8.873271754703225
 30
0.0
 40
5.079999999999989
100
AcDbArc
 50
349.1450534251042
 51
19.99999999999964
  0
ARC
  5
316
330
1F
100
AcDbEntity
  8
0
100
AcDbCircle
 10
17.77999999999999
 20
-12.7
 30
0.0
 40
15.23999999999999
100
AcDbArc
 50
169.1450534251042
 51
180.0
  0
ARC
  5
317
330
1F
100
AcDbEntity
  8
0
100
AcDbCircle
 10
3.809999999999992
 20
-12.7
 30
0.0
 40
1.269999999999996
100
AcDbArc
 50
180.0
 51
217.9094529510121
  0
ARC
  5
318
330
1F
100
AcDbEntity
  8
0
100
AcDbCircle
 10
14.83208868471683
 20
-4.116617157190455
 30
0.0
 40
15.24
100
AcDbArc
 50
217.9094529510118
 51
225.1509732820224
  0
ARC
  5
319
330
1F
100
AcDbEntity
  8
0
100
AcDbCircle
 10
4.532042189203496
 20
-14.47108803649006
 30
0.0
 40
0.6349999999999973
100
AcDbArc
 50
225.1509732820224
 51
355.0000000000005
  0
LINE
  5
320
330
1F
100
AcDbEntity
  8
0
100
AcDbLine
 10
5.164625822491755
 20
-14.52643193313482
 30
0.0
 11
5.625182195843072
 21
-9.262248497358758
 31
0.0
  0
ARC
  5
321
330
1F
100
AcDbEntity
  8
0
100
AcDbCircle
 10
0.5645131295370042
 20
-8.819497324200689
 30
0.0
 40
5.08
100
AcDbArc
 50
355.0000000000003
 51
10.88596130892923
  0
LINE
  5
322
330
1F
100
AcDbEntity
  8
0
100
AcDbLine
 10
5.553098609021445
 20
-7.860114755108997
 30
0.0
 11
4.525447618062179
 21
-2.51654798973379
 31
0.0
  0
LINE
  5
323
330
1F
100
AcDbEntity
  8
0
100
AcDbLine
 10
4.525447618062179
 20
-2.51654798973379
 30
0.0
 11
1.858572591923958
 21
3.108782714601805
 31
0.0
  0
CIRCLE
  5
325
330
1F
100
AcDbEntity
  8
0
100
AcDbCircle
 10
2.549387610227254
 20
-2.831381785068868
 30
0.0
 40
0.3302
  0
CIRCLE
  5
326
330
1F
100
AcDbEntity
  8
0
100
AcDbCircle
 10
4.263949681361164
 20
-10.16906342535497
 30
0.0
 40
0.3301999999999996
  0
CIRCLE
  5
327
330
1F
100
AcDbEntity
  8
0
100
AcDbCircle
 10
4.049566717662728
 20
-12.7
 30
0.0
 40
0.3571875000000002
  0
CIRCLE
  5
10070
330
1F
100
AcDbEntity
  8
0
  6
Continuous
100
AcDbCircle
 10
0.0000000000000004
 20
0.0000000000000002
 30
0.0
 40
0.4
  0
CIRCLE
  5
10074
330
1F
100
AcDbEntity
  8
0
100
AcDbCircle
 10
3.364124875003311
 20
-10.25423437747365
 30
0.0
 40
0.3301999999999996
  0
ENDSEC
  0
SECTION
  2
OBJECTS
  0
DICTIONARY
  5
C
330
0
100
AcDbDictionary
281
     1
  3
ACAD_CIP_PREVIOUS_PRODUCT_INFO
350
1005A
  3
ACAD_COLOR
350
10036
  3
ACAD_DETAILVIEWSTYLE
350
10051
  3
ACAD_GROUP
350
D
  3
ACAD_LAYOUT
350
10037
  3
ACAD_MATERIAL
350
10004
  3
ACAD_MLEADERSTYLE
350
1004D
  3
ACAD_MLINESTYLE
350
17
  3
ACAD_PLOTSETTINGS
350
10054
  3
ACAD_PLOTSTYLENAME
350
10002
  3
ACAD_SCALELIST
350
1003B
  3
ACAD_SECTIONVIEWSTYLE
350
1004F
  3
ACAD_TABLESTYLE
350
10038
  3
ACAD_VISUALSTYLE
350
1001D
  3
ACDB_RECOMPOSE_DATA
350
100EB
  3
AcDbVariableDictionary
350
100DC
  0
DICTIONARY
  5
100A6
330
50
100
AcDbDictionary
280
     1
281
     1
  3
ADSK_XREC_LAYER_RECONCILED
360
100A7
  0
XRECORD
  5
1005A
102
{ACAD_REACTORS
330
C
102
}
330
C
100
AcDbXrecord
280
     1
300
ACDLT
300
2019
300

  0
DICTIONARY
  5
10036
102
{ACAD_REACTORS
330
C
102
}
330
C
100
AcDbDictionary
281
     1
  0
DICTIONARY
  5
10051
102
{ACAD_REACTORS
330
C
102
}
330
C
100
AcDbDictionary
281
     1
  3
Imperial24
350
10052
  0
DICTIONARY
  5
D
330
C
100
AcDbDictionary
281
     1
  0
DICTIONARY
  5
10037
102
{ACAD_REACTORS
330
C
102
}
330
C
100
AcDbDictionary
281
     1
  3
Layout1
350
10056
  3
Model
350
10055
  0
DICTIONARY
  5
10004
102
{ACAD_REACTORS
330
C
102
}
330
C
100
AcDbDictionary
281
     1
  3
ByBlock
350
1000D
  3
ByLayer
350
10005
  3
Global
350
10015
  0
DICTIONARY
  5
1004D
102
{ACAD_REACTORS
330
C
102
}
330
C
100
AcDbDictionary
281
     1
  3
Standard
350
1004E
  0
DICTIONARY
  5
17
330
C
100
AcDbDictionary
281
     1
  3
Standard
350
1003A
  0
DICTIONARY
  5
10054
102
{ACAD_REACTORS
330
C
102
}
330
C
100
AcDbDictionary
281
     1
  0
ACDBDICTIONARYWDFLT
  5
10002
102
{ACAD_REACTORS
330
C
102
}
330
C
100
AcDbDictionary
281
     1
  3
Normal
350
10003
100
AcDbDictionaryWithDefault
340
10003
  0
DICTIONARY
  5
1003B
102
{ACAD_REACTORS
330
C
102
}
330
C
100
AcDbDictionary
281
     1
  3
A0
350
1003C
  3
A1
350
1003D
  3
A2
350
1003E
  3
A3
350
1003F
  3
A4
350
10040
  3
A5
350
10041
  3
A6
350
10042
  3
A7
350
10043
  3
A8
350
10044
  3
A9
350
10045
  3
B0
350
10046
  3
B1
350
10047
  3
B2
350
10048
  3
B3
350
10049
  3
B4
350
1004A
  3
B5
350
1004B
  3
B6
350
1004C
  0
DICTIONARY
  5
1004F
102
{ACAD_REACTORS
330
C
102
}
330
C
100
AcDbDictionary
281
     1
  3
Imperial24
350
10050
  0
DICTIONARY
  5
10038
102
{ACAD_REACTORS
330
C
102
}
330
C
100
AcDbDictionary
281
     1
  3
Standard
350
10039
  0
DICTIONARY
  5
1001D
102
{ACAD_REACTORS
330
C
102
}
330
C
100
AcDbDictionary
281
     1
  3
2dWireframe
350
10023
  3
Basic
350
10022
  3
Brighten
350
10029
  3
ColorChange
350
1002D
  3
Conceptual
350
10026
  3
Dim
350
10028
  3
EdgeColorOff
350
10035
  3
Facepattern
350
1002C
  3
Flat
350
1001E
  3
FlatWithEdges
350
1001F
  3
Gouraud
350
10020
  3
GouraudWithEdges
350
10021
  3
Hidden
350
10025
  3
JitterOff
350
10033
  3
Linepattern
350
1002B
  3
OverhangOff
350
10034
  3
Realistic
350
10027
  3
Shaded
350
10032
  3
Shaded with edges
350
10031
  3
Shades of Gray
350
1002E
  3
Sketchy
350
1002F
  3
Thicken
350
1002A
  3
Wireframe
350
10024
  3
X-Ray
350
10030
  0
XRECORD
  5
100EB
102
{ACAD_REACTORS
330
C
102
}
330
C
100
AcDbXrecord
280
     1
 90
        1
330
10039
  0
DICTIONARY
  5
100DC
102
{ACAD_REACTORS
330
C
102
}
330
C
100
AcDbDictionary
281
     1
  3
CANNOSCALE
350
100E2
  3
CMLEADERSTYLE
350
100DE
  3
CTABLESTYLE
350
100DD
  3
CVIEWDETAILSTYLE
350
100DF
  3
CVIEWSECTIONSTYLE
350
100E0
  3
LAYEREVAL
350
100E4
  3
LAYERNOTIFY
350
100E5
  3
LIGHTINGUNITS
350
100E3
  3
MSLTSCALE
350
100E1
  0
XRECORD
  5
100A7
102
{ACAD_REACTORS
330
100A6
102
}
330
100A6
100
AcDbXrecord
280
     1
290
     1
  0
ACDBDETAILVIEWSTYLE
  5
10052
102
{ACAD_XDICTIONARY
360
100EE
102
}
102
{ACAD_REACTORS
330
10051
102
}
330
10051
100
AcDbModelDocViewStyle
 70
     0
  3
Imperial24
290
     0
100
AcDbDetailViewStyle
 70
     0
 71
     0
 90
        3
 71
     1
340
11
 62
   256
 40
0.24
340
0
 62
   256
 40
0.24
300

 40
0.36
280
     3
 71
     2
340
0
 90
       25
 62
   256
 71
     3
340
11
 62
   256
 40
0.24
 90
        1
 40
0.75
 90
        1
300
%<\AcVar ViewType \f "%tc1">% %<\AcVar ViewDetailId>%\PSCALE %<\AcVar ViewScale \f "%sn">%
 71
     4
340
0
 90
       25
 62
   256
340
0
 90
       25
 62
   256
280
     0
  0
LAYOUT
  5
10056
102
{ACAD_REACTORS
330
10037
102
}
330
10037
100
AcDbPlotSettings
  1

  2
C:\Users\camil\AppData\Roaming\Autodesk\AutoCAD LT 2019\R25\enu\plotters\AutoCAD PDF (General Documentation).pc3
  4

  6

 40
0.0
 41
0.0
 42
0.0
 43
0.0
 44
0.0
 45
0.0
 46
0.0
 47
0.0
 48
0.0
 49
0.0
140
0.0
141
0.0
142
1.0
143
1.0
 70
   688
 72
     0
 73
     0
 74
     5
  7

 75
    16
147
1.0
 76
     0
 77
     2
 78
   300
148
0.0
149
0.0
100
AcDbLayout
  1
Layout1
 70
     1
 71
     1
 10
0.0
 20
0.0
 11
12.0
 21
9.0
 12
0.0
 22
0.0
 32
0.0
 14
1.000000000000000E+20
 24
1.000000000000000E+20
 34
1.000000000000000E+20
 15
-1.000000000000000E+20
 25
-1.000000000000000E+20
 35
-1.000000000000000E+20
146
0.0
 13
0.0
 23
0.0
 33
0.0
 16
1.0
 26
0.0
 36
0.0
 17
0.0
 27
1.0
 37
0.0
 76
     0
330
1B
  0
LAYOUT
  5
10055
102
{ACAD_REACTORS
330
10037
102
}
330
10037
100
AcDbPlotSettings
  1

  2
C:\Users\camil\AppData\Roaming\Autodesk\AutoCAD LT 2019\R25\enu\plotters\AutoCAD PDF (General Documentation).pc3
  4

  6

 40
0.0
 41
0.0
 42
0.0
 43
0.0
 44
0.0
 45
0.0
 46
0.0
 47
0.0
 48
0.0
 49
0.0
140
0.0
141
0.0
142
1.0
143
1.0
 70
  1712
 72
     0
 73
     0
 74
     0
  7

 75
     0
147
1.0
 76
     0
 77
     2
 78
   300
148
0.0
149
0.0
100
AcDbLayout
  1
Model
 70
     1
 71
     0
 10
0.0
 20
0.0
 11
12.0
 21
9.0
 12
0.0
 22
0.0
 32
0.0
 14
0.0
 24
0.0
 34
0.0
 15
0.0
 25
0.0
 35
0.0
146
0.0
 13
0.0
 23
0.0
 33
0.0
 16
1.0
 26
0.0
 36
0.0
 17
0.0
 27
1.0
 37
0.0
 76
     0
330
1F
331
10059
  0
MATERIAL
  5
1000D
102
{ACAD_XDICTIONARY
360
1000E
102
}
102
{ACAD_REACTORS
330
10004
102
}
330
10004
100
AcDbMaterial
  1
ByBlock
 72
     0
 43
0.0208333333333333
 43
0.0
 43
0.0
 43
0.0
 43
0.0
 43
0.0208333333333333
 43
0.0
 43
0.0
 43
0.0
 43
0.0
 43
1.0
 43
0.0
 43
0.0
 43
0.0
 43
0.0
 43
1.0
 77
     0
 47
0.0208333333333333
 47
0.0
 47
0.0
 47
0.0
 47
0.0
 47
0.0208333333333333
 47
0.0
 47
0.0
 47
0.0
 47
0.0
 47
1.0
 47
0.0
 47
0.0
 47
0.0
 47
0.0
 47
1.0
171
     0
 49
0.0208333333333333
 49
0.0
 49
0.0
 49
0.0
 49
0.0
 49
0.0208333333333333
 49
0.0
 49
0.0
 49
0.0
 49
0.0
 49
1.0
 49
0.0
 49
0.0
 49
0.0
 49
0.0
 49
1.0
175
     0
142
0.0208333333333333
142
0.0
142
0.0
142
0.0
142
0.0
142
0.0208333333333333
142
0.0
142
0.0
142
0.0
142
0.0
142
1.0
142
0.0
142
0.0
142
0.0
142
0.0
142
1.0
179
     0
144
0.0208333333333333
144
0.0
144
0.0
144
0.0
144
0.0
144
0.0208333333333333
144
0.0
144
0.0
144
0.0
144
0.0
144
1.0
144
0.0
144
0.0
144
0.0
144
0.0
144
1.0
147
0.0208333333333333
147
0.0
147
0.0
147
0.0
147
0.0
147
0.0208333333333333
147
0.0
147
0.0
147
0.0
147
0.0
147
1.0
147
0.0
147
0.0
147
0.0
147
0.0
147
1.0
  0
MATERIAL
  5
10005
102
{ACAD_XDICTIONARY
360
10006
102
}
102
{ACAD_REACTORS
330
10004
102
}
330
10004
100
AcDbMaterial
  1
ByLayer
 72
     0
 43
0.0208333333333333
 43
0.0
 43
0.0
 43
0.0
 43
0.0
 43
0.0208333333333333
 43
0.0
 43
0.0
 43
0.0
 43
0.0
 43
1.0
 43
0.0
 43
0.0
 43
0.0
 43
0.0
 43
1.0
 77
     0
 47
0.0208333333333333
 47
0.0
 47
0.0
 47
0.0
 47
0.0
 47
0.0208333333333333
 47
0.0
 47
0.0
 47
0.0
 47
0.0
 47
1.0
 47
0.0
 47
0.0
 47
0.0
 47
0.0
 47
1.0
171
     0
 49
0.0208333333333333
 49
0.0
 49
0.0
 49
0.0
 49
0.0
 49
0.0208333333333333
 49
0.0
 49
0.0
 49
0.0
 49
0.0
 49
1.0
 49
0.0
 49
0.0
 49
0.0
 49
0.0
 49
1.0
175
     0
142
0.0208333333333333
142
0.0
142
0.0
142
0.0
142
0.0
142
0.0208333333333333
142
0.0
142
0.0
142
0.0
142
0.0
142
1.0
142
0.0
142
0.0
142
0.0
142
0.0
142
1.0
179
     0
144
0.0208333333333333
144
0.0
144
0.0
144
0.0
144
0.0
144
0.0208333333333333
144
0.0
144
0.0
144
0.0
144
0.0
144
1.0
144
0.0
144
0.0
144
0.0
144
0.0
144
1.0
147
0.0208333333333333
147
0.0
147
0.0
147
0.0
147
0.0
147
0.0208333333333333
147
0.0
147
0.0
147
0.0
147
0.0
147
1.0
147
0.0
147
0.0
147
0.0
147
0.0
147
1.0
  0
MATERIAL
  5
10015
102
{ACAD_XDICTIONARY
360
10016
102
}
102
{ACAD_REACTORS
330
10004
102
}
330
10004
100
AcDbMaterial
  1
Global
 72
     0
 43
0.0208333333333333
 43
0.0
 43
0.0
 43
0.0
 43
0.0
 43
0.0208333333333333
 43
0.0
 43
0.0
 43
0.0
 43
0.0
 43
1.0
 43
0.0
 43
0.0
 43
0.0
 43
0.0
 43
1.0
 77
     0
 47
0.0208333333333333
 47
0.0
 47
0.0
 47
0.0
 47
0.0
 47
0.0208333333333333
 47
0.0
 47
0.0
 47
0.0
 47
0.0
 47
1.0
 47
0.0
 47
0.0
 47
0.0
 47
0.0
 47
1.0
171
     0
 49
0.0208333333333333
 49
0.0
 49
0.0
 49
0.0
 49
0.0
 49
0.0208333333333333
 49
0.0
 49
0.0
 49
0.0
 49
0.0
 49
1.0
 49
0.0
 49
0.0
 49
0.0
 49
0.0
 49
1.0
175
     0
142
0.0208333333333333
142
0.0
142
0.0
142
0.0
142
0.0
142
0.0208333333333333
142
0.0
142
0.0
142
0.0
142
0.0
142
1.0
142
0.0
142
0.0
142
0.0
142
0.0
142
1.0
179
     0
144
0.0208333333333333
144
0.0
144
0.0
144
0.0
144
0.0
144
0.0208333333333333
144
0.0
144
0.0
144
0.0
144
0.0
144
1.0
144
0.0
144
0.0
144
0.0
144
0.0
144
1.0
147
0.0208333333333333
147
0.0
147
0.0
147
0.0
147
0.0
147
0.0208333333333333
147
0.0
147
0.0
147
0.0
147
0.0
147
1.0
147
0.0
147
0.0
147
0.0
147
0.0
147
1.0
  0
MLEADERSTYLE
  5
1004E
102
{ACAD_REACTORS
330
1004D
102
}
330
1004D
100
AcDbMLeaderStyle
179
     2
170
     2
171
     1
172
     0
 90
        2
 40
0.0
 41
0.0
173
     1
 91
-1056964608
340
14
 92
       -2
290
     1
 42
0.09
291
     1
 43
0.36
  3
Standard
 44
0.18
300

342
11
174
     1
178
     6
175
     1
176
     0
 93
-1056964608
 45
0.18
292
     0
297
     0
 46
0.18
 94
-1056964608
 47
1.0
 49
1.0
140
1.0
293
     1
141
0.0
294
     1
177
     0
142
1.0
295
     0
296
     0
143
0.125
271
     0
272
     9
273
     9
298
     0
  0
MLINESTYLE
  5
1003A
102
{ACAD_REACTORS
330
17
102
}
330
17
100
AcDbMlineStyle
  2
STANDARD
 70
     0
  3

 62
   256
 51
90.0
 52
90.0
 71
     2
 49
0.5
 62
   256
  6
BYLAYER
 49
-0.5
 62
   256
  6
BYLAYER
  0
ACDBPLACEHOLDER
  5
10003
102
{ACAD_REACTORS
330
10002
102
}
330
10002
  0
SCALE
  5
1003C
102
{ACAD_REACTORS
330
1003B
102
}
330
1003B
100
AcDbScale
 70
     0
300
1:1
140
1.0
141
1.0
290
     1
  0
SCALE
  5
1003D
102
{ACAD_REACTORS
330
1003B
102
}
330
1003B
100
AcDbScale
 70
     0
300
1/128" = 1'-0"
140
0.0078125
141
12.0
290
     0
  0
SCALE
  5
1003E
102
{ACAD_REACTORS
330
1003B
102
}
330
1003B
100
AcDbScale
 70
     0
300
1/64" = 1'-0"
140
0.015625
141
12.0
290
     0
  0
SCALE
  5
1003F
102
{ACAD_REACTORS
330
1003B
102
}
330
1003B
100
AcDbScale
 70
     0
300
1/32" = 1'-0"
140
0.03125
141
12.0
290
     0
  0
SCALE
  5
10040
102
{ACAD_REACTORS
330
1003B
102
}
330
1003B
100
AcDbScale
 70
     0
300
1/16" = 1'-0"
140
0.0625
141
12.0
290
     0
  0
SCALE
  5
10041
102
{ACAD_REACTORS
330
1003B
102
}
330
1003B
100
AcDbScale
 70
     0
300
3/32" = 1'-0"
140
0.09375
141
12.0
290
     0
  0
SCALE
  5
10042
102
{ACAD_REACTORS
330
1003B
102
}
330
1003B
100
AcDbScale
 70
     0
300
1/8" = 1'-0"
140
0.125
141
12.0
290
     0
  0
SCALE
  5
10043
102
{ACAD_REACTORS
330
1003B
102
}
330
1003B
100
AcDbScale
 70
     0
300
3/16" = 1'-0"
140
0.1875
141
12.0
290
     0
  0
SCALE
  5
10044
102
{ACAD_REACTORS
330
1003B
102
}
330
1003B
100
AcDbScale
 70
     0
300
1/4" = 1'-0"
140
0.25
141
12.0
290
     0
  0
SCALE
  5
10045
102
{ACAD_REACTORS
330
1003B
102
}
330
1003B
100
AcDbScale
 70
     0
300
3/8" = 1'-0"
140
0.375
141
12.0
290
     0
  0
SCALE
  5
10046
102
{ACAD_REACTORS
330
1003B
102
}
330
1003B
100
AcDbScale
 70
     0
300
1/2" = 1'-0"
140
0.5
141
12.0
290
     0
  0
SCALE
  5
10047
102
{ACAD_REACTORS
330
1003B
102
}
330
1003B
100
AcDbScale
 70
     0
300
3/4" = 1'-0"
140
0.75
141
12.0
290
     0
  0
SCALE
  5
10048
102
{ACAD_REACTORS
330
1003B
102
}
330
1003B
100
AcDbScale
 70
     0
300
1" = 1'-0"
140
1.0
141
12.0
290
     0
  0
SCALE
  5
10049
102
{ACAD_REACTORS
330
1003B
102
}
330
1003B
100
AcDbScale
 70
     0
300
1-1/2" = 1'-0"
140
1.5
141
12.0
290
     0
  0
SCALE
  5
1004A
102
{ACAD_REACTORS
330
1003B
102
}
330
1003B
100
AcDbScale
 70
     0
300
3" = 1'-0"
140
3.0
141
12.0
290
     0
  0
SCALE
  5
1004B
102
{ACAD_REACTORS
330
1003B
102
}
330
1003B
100
AcDbScale
 70
     0
300
6" = 1'-0"
140
6.0
141
12.0
290
     0
  0
SCALE
  5
1004C
102
{ACAD_REACTORS
330
1003B
102
}
330
1003B
100
AcDbScale
 70
     0
300
1'-0" = 1'-0"
140
12.0
141
12.0
290
     0
  0
ACDBSECTIONVIEWSTYLE
  5
10050
102
{ACAD_XDICTIONARY
360
100EC
102
}
102
{ACAD_REACTORS
330
1004F
102
}
330
1004F
100
AcDbModelDocViewStyle
 70
     0
  3
Imperial24
290
     0
100
AcDbSectionViewStyle
 70
     0
 71
     0
 90
       78
 71
     1
340
11
 62
   256
 40
0.24
340
0
340
0
 62
   256
 40
0.24
300
I, O, Q, S, X, Z
 40
0.48
 90
        3
 40
0.18
 90
        1
 71
     2
340
0
 90
       25
 62
   256
340
0
 90
       50
 62
   256
 40
0.24
 40
0.0
 40
0.24
 71
     3
340
11
 62
   256
 40
0.24
 90
        1
 40
0.75
 90
        1
300
%<\AcVar ViewType \f "%tc1">% %<\AcVar ViewSectionStartId>%-%<\AcVar ViewSectionEndId>%\PSCALE %<\AcVar ViewScale \f "%sn">%
 71
     4
 62
   256
 62
   257
300
ANSI31
 40
1.0
 90
        0
290
     0
290
     0
 90
        6
 40
0.0
 40
1.570796326794896
 40
0.2617993877991494
 40
1.308996938995747
 40
-0.2617993877991494
 40
1.832595714594046
  0
TABLESTYLE
  5
10039
102
{ACAD_XDICTIONARY
360
100E9
102
}
102
{ACAD_REACTORS
330
10038
102
}
330
10038
100
AcDbTableStyle
280
     0
  3
Standard
 70
     0
 71
     0
 40
0.06
 41
0.06
280
     0
281
     0
  7
STANDARD
140
0.18
170
     2
 62
     0
 63
     7
283
     0
 90
      512
 91
        0
  1

274
    -2
284
     1
 64
     0
275
    -2
285
     1
 65
     0
276
    -2
286
     1
 66
     0
277
    -2
287
     1
 67
     0
278
    -2
288
     1
 68
     0
279
    -2
289
     1
 69
     0
  7
STANDARD
140
0.25
170
     5
 62
     0
 63
     7
283
     0
 90
      512
 91
        0
  1

274
    -2
284
     1
 64
     0
275
    -2
285
     1
 65
     0
276
    -2
286
     1
 66
     0
277
    -2
287
     1
 67
     0
278
    -2
288
     1
 68
     0
279
    -2
289
     1
 69
     0
  7
STANDARD
140
0.18
170
     5
 62
     0
 63
     7
283
     0
 90
      512
 91
        0
  1

274
    -2
284
     1
 64
     0
275
    -2
285
     1
 65
     0
276
    -2
286
     1
 66
     0
277
    -2
287
     1
 67
     0
278
    -2
288
     1
 68
     0
279
    -2
289
     1
 69
     0
  0
VISUALSTYLE
  5
10023
102
{ACAD_REACTORS
330
1001D
102
}
330
1001D
100
AcDbVisualStyle
  2
2dWireframe
 70
     4
177
     3
291
     0
 70
    58
 90
        0
176
     1
 90
        2
176
     1
 90
        0
176
     1
 90
        0
176
     1
 40
0.6
176
     1
 40
30.0
176
     1
 62
     7
420
 16777215
176
     1
 90
        1
176
     1
 90
        4
176
     1
 62
     7
176
     1
 62
   257
176
     1
 90
        1
176
     1
 90
        1
176
     1
 40
1.0
176
     1
 90
        0
176
     1
 62
   257
176
     1
 40
1.0
176
     1
 90
        1
176
     1
 90
        6
176
     1
 90
        2
176
     1
 62
     7
176
     1
 90
        5
176
     1
 90
        0
176
     1
 90
        0
176
     1
290
     0
176
     1
 90
        1
176
     1
 40
0.0
176
     1
 90
        0
176
     1
290
     1
176
     1
290
     1
176
     1
290
     0
176
     1
290
     0
176
     1
290
     0
176
     1
290
     0
176
     1
290
     0
176
     1
290
     0
176
     1
290
     0
176
     1
 90
       50
176
     1
 40
0.0
176
     1
 40
1.0
176
     1
 90
        0
176
     1
 62
    18
420
        0
176
     1
 90
       50
176
     1
 90
        3
176
     1
 62
     5
420
      255
176
     1
290
     0
176
     1
 90
       50
176
     1
 90
       50
176
     1
 90
       50
176
     1
290
     0
176
     1
 90
       50
176
     1
 62
   256
176
     0
 40
1.0
176
     0
 90
        2
176
     1
  1
strokes_ogs.tif
176
     1
290
     0
176
     1
 40
1.0
176
     1
 40
1.0
176
     1
1001
ACAD
1000
AcDbSavedByObjectVersion
1070
     0
  0
VISUALSTYLE
  5
10022
102
{ACAD_REACTORS
330
1001D
102
}
330
1001D
100
AcDbVisualStyle
  2
Basic
 70
     7
177
     3
291
     1
 70
    58
 90
        1
176
     1
 90
        0
176
     1
 90
        1
176
     1
 90
        0
176
     1
 40
0.6
176
     1
 40
30.0
176
     1
 62
     7
420
 16777215
176
     1
 90
        0
176
     1
 90
        4
176
     1
 62
     7
176
     1
 62
   257
176
     1
 90
        1
176
     1
 90
        1
176
     1
 40
1.0
176
     1
 90
        8
176
     1
 62
     7
176
     1
 40
1.0
176
     1
 90
        1
176
     1
 90
        6
176
     1
 90
        2
176
     1
 62
     7
176
     1
 90
        5
176
     1
 90
        0
176
     1
 90
        0
176
     1
290
     0
176
     1
 90
        1
176
     1
 40
0.0
176
     1
 90
        0
176
     1
290
     0
176
     1
290
     1
176
     1
290
     1
176
     1
290
     0
176
     1
290
     0
176
     1
290
     0
176
     1
290
     0
176
     1
290
     0
176
     1
290
     0
176
     1
 90
       50
176
     1
 40
0.0
176
     1
 40
1.0
176
     1
 90
        0
176
     1
 62
    18
420
        0
176
     1
 90
       50
176
     1
 90
        3
176
     1
 62
     5
420
      255
176
     1
290
     0
176
     1
 90
       50
176
     1
 90
       50
176
     1
 90
       50
176
     1
290
     0
176
     1
 90
       50
176
     1
 62
   256
176
     0
 40
1.0
176
     0
 90
        2
176
     1
  1
strokes_ogs.tif
176
     1
290
     0
176
     1
 40
1.0
176
     1
 40
1.0
176
     1
1001
ACAD
1000
AcDbSavedByObjectVersion
1070
     0
  0
VISUALSTYLE
  5
10029
102
{ACAD_REACTORS
330
1001D
102
}
330
1001D
100
AcDbVisualStyle
  2
Brighten
 70
    12
177
     3
291
     1
 70
    58
 90
        2
176
     1
 90
        2
176
     1
 90
        0
176
     1
 90
        0
176
     1
 40
0.6
176
     1
 40
30.0
176
     1
 62
     7
420
 16777215
176
     1
 90
        1
176
     1
 90
        4
176
     1
 62
     7
176
     1
 62
   257
176
     1
 90
        1
176
     1
 90
        1
176
     1
 40
1.0
176
     1
 90
        8
176
     1
 62
     7
176
     1
 40
1.0
176
     1
 90
        1
176
     1
 90
        6
176
     1
 90
        2
176
     1
 62
     7
176
     1
 90
        5
176
     1
 90
        0
176
     1
 90
        0
176
     1
290
     0
176
     1
 90
        1
176
     1
 40
50.0
176
     1
 90
        0
176
     1
290
     0
176
     1
290
     1
176
     1
290
     1
176
     1
290
     0
176
     1
290
     0
176
     1
290
     0
176
     1
290
     0
176
     1
290
     0
176
     1
290
     0
176
     1
 90
       50
176
     1
 40
0.0
176
     1
 40
1.0
176
     1
 90
        0
176
     1
 62
    18
420
        0
176
     1
 90
       50
176
     1
 90
        3
176
     1
 62
     5
420
      255
176
     1
290
     0
176
     1
 90
       50
176
     1
 90
       50
176
     1
 90
       50
176
     1
290
     0
176
     1
 90
       50
176
     1
 62
   256
176
     0
 40
1.0
176
     0
 90
        2
176
     1
  1
strokes_ogs.tif
176
     1
290
     0
176
     1
 40
1.0
176
     1
 40
1.0
176
     1
1001
ACAD
1000
AcDbSavedByObjectVersion
1070
     0
  0
VISUALSTYLE
  5
1002D
102
{ACAD_REACTORS
330
1001D
102
}
330
1001D
100
AcDbVisualStyle
  2
ColorChange
 70
    16
177
     3
291
     1
 70
    58
 90
        2
176
     1
 90
        2
176
     1
 90
        3
176
     1
 90
        0
176
     1
 40
0.6
176
     1
 40
30.0
176
     1
 62
     8
420
  8421504
176
     1
 90
        1
176
     1
 90
        4
176
     1
 62
     7
176
     1
 62
   257
176
     1
 90
        1
176
     1
 90
        1
176
     1
 40
1.0
176
     1
 90
        8
176
     1
 62
     8
420
  8421504
176
     1
 40
1.0
176
     1
 90
        1
176
     1
 90
        6
176
     1
 90
        2
176
     1
 62
     7
176
     1
 90
        5
176
     1
 90
        0
176
     1
 90
        0
176
     1
290
     0
176
     1
 90
        1
176
     1
 40
0.0
176
     1
 90
        0
176
     1
290
     0
176
     1
290
     1
176
     1
290
     1
176
     1
290
     0
176
     1
290
     0
176
     1
290
     0
176
     1
290
     0
176
     1
290
     0
176
     1
290
     0
176
     1
 90
       50
176
     1
 40
0.0
176
     1
 40
1.0
176
     1
 90
        0
176
     1
 62
    18
420
        0
176
     1
 90
       50
176
     1
 90
        3
176
     1
 62
     5
420
      255
176
     1
290
     0
176
     1
 90
       50
176
     1
 90
       50
176
     1
 90
       50
176
     1
290
     0
176
     1
 90
       50
176
     1
 62
   256
176
     0
 40
1.0
176
     0
 90
        2
176
     1
  1
strokes_ogs.tif
176
     1
290
     0
176
     1
 40
1.0
176
     1
 40
1.0
176
     1
1001
ACAD
1000
AcDbSavedByObjectVersion
1070
     0
  0
VISUALSTYLE
  5
10026
102
{ACAD_REACTORS
330
1001D
102
}
330
1001D
100
AcDbVisualStyle
  2
Conceptual
 70
     9
177
     3
291
     0
 70
    58
 90
        3
176
     1
 90
        2
176
     1
 90
        0
176
     1
 90
        0
176
     1
 40
0.6
176
     1
 40
30.0
176
     1
 62
     7
420
 16777215
176
     1
 90
        2
176
     1
 90
        2
176
     1
 62
     7
176
     1
 62
   257
176
     1
 90
        1
176
     1
 90
        1
176
     1
 40
179.0
176
     1
 90
        8
176
     1
 62
     7
176
     1
 40
1.0
176
     1
 90
        1
176
     1
 90
        6
176
     1
 90
        2
176
     1
 62
     7
176
     1
 90
        3
176
     1
 90
        0
176
     1
 90
        0
176
     1
290
     0
176
     1
 90
        1
176
     1
 40
0.0
176
     1
 90
        0
176
     1
290
     0
176
     1
290
     1
176
     1
290
     1
176
     1
290
     0
176
     1
290
     0
176
     1
290
     0
176
     1
290
     0
176
     1
290
     0
176
     1
290
     0
176
     1
 90
       50
176
     1
 40
0.0
176
     1
 40
1.0
176
     1
 90
        0
176
     1
 62
    18
420
        0
176
     1
 90
       50
176
     1
 90
        3
176
     1
 62
     5
420
      255
176
     1
290
     0
176
     1
 90
       50
176
     1
 90
       50
176
     1
 90
       50
176
     1
290
     0
176
     1
 90
       50
176
     1
 62
   256
176
     0
 40
1.0
176
     0
 90
        2
176
     1
  1
strokes_ogs.tif
176
     1
290
     0
176
     1
 40
1.0
176
     1
 40
1.0
176
     1
1001
ACAD
1000
AcDbSavedByObjectVersion
1070
     0
  0
VISUALSTYLE
  5
10028
102
{ACAD_REACTORS
330
1001D
102
}
330
1001D
100
AcDbVisualStyle
  2
Dim
 70
    11
177
     3
291
     1
 70
    58
 90
        2
176
     1
 90
        2
176
     1
 90
        0
176
     1
 90
        0
176
     1
 40
0.6
176
     1
 40
30.0
176
     1
 62
     7
420
 16777215
176
     1
 90
        1
176
     1
 90
        4
176
     1
 62
     7
176
     1
 62
   257
176
     1
 90
        1
176
     1
 90
        1
176
     1
 40
1.0
176
     1
 90
        8
176
     1
 62
     7
176
     1
 40
1.0
176
     1
 90
        1
176
     1
 90
        6
176
     1
 90
        2
176
     1
 62
     7
176
     1
 90
        5
176
     1
 90
        0
176
     1
 90
        0
176
     1
290
     0
176
     1
 90
        1
176
     1
 40
-50.0
176
     1
 90
        0
176
     1
290
     0
176
     1
290
     1
176
     1
290
     1
176
     1
290
     0
176
     1
290
     0
176
     1
290
     0
176
     1
290
     0
176
     1
290
     0
176
     1
290
     0
176
     1
 90
       50
176
     1
 40
0.0
176
     1
 40
1.0
176
     1
 90
        0
176
     1
 62
    18
420
        0
176
     1
 90
       50
176
     1
 90
        3
176
     1
 62
     5
420
      255
176
     1
290
     0
176
     1
 90
       50
176
     1
 90
       50
176
     1
 90
       50
176
     1
290
     0
176
     1
 90
       50
176
     1
 62
   256
176
     0
 40
1.0
176
     0
 90
        2
176
     1
  1
strokes_ogs.tif
176
     1
290
     0
176
     1
 40
1.0
176
     1
 40
1.0
176
     1
1001
ACAD
1000
AcDbSavedByObjectVersion
1070
     0
  0
VISUALSTYLE
  5
10035
102
{ACAD_REACTORS
330
1001D
102
}
330
1001D
100
AcDbVisualStyle
  2
EdgeColorOff
 70
    22
177
     3
291
     1
 70
    58
 90
        2
176
     0
 90
        2
176
     0
 90
        0
176
     0
 90
        0
176
     0
 40
0.6
176
     0
 40
30.0
176
     0
 62
     7
420
 16777215
176
     0
 90
        1
176
     0
 90
        4
176
     0
 62
     7
176
     0
 62
   257
176
     0
 90
        1
176
     0
 90
        1
176
     0
 40
1.0
176
     0
 90
        8
176
     2
 62
     7
176
     0
 40
1.0
176
     0
 90
        1
176
     0
 90
        6
176
     0
 90
        2
176
     0
 62
     7
176
     0
 90
        5
176
     0
 90
        0
176
     0
 90
        0
176
     0
290
     0
176
     0
 90
        1
176
     0
 40
0.0
176
     0
 90
        0
176
     0
290
     0
176
     1
290
     1
176
     1
290
     1
176
     1
290
     0
176
     1
290
     0
176
     1
290
     0
176
     1
290
     0
176
     1
290
     0
176
     1
290
     0
176
     1
 90
       50
176
     0
 40
0.0
176
     0
 40
1.0
176
     0
 90
        0
176
     0
 62
    18
420
        0
176
     0
 90
       50
176
     0
 90
        3
176
     0
 62
     5
420
      255
176
     0
290
     0
176
     1
 90
       50
176
     0
 90
       50
176
     0
 90
       50
176
     0
290
     0
176
     1
 90
       50
176
     0
 62
   256
176
     0
 40
1.0
176
     0
 90
        2
176
     0
  1
strokes_ogs.tif
176
     0
290
     0
176
     1
 40
1.0
176
     0
 40
1.0
176
     0
1001
ACAD
1000
AcDbSavedByObjectVersion
1070
     0
  0
VISUALSTYLE
  5
1002C
102
{ACAD_REACTORS
330
1001D
102
}
330
1001D
100
AcDbVisualStyle
  2
Facepattern
 70
    15
177
     3
291
     1
 70
    58
 90
        2
176
     1
 90
        2
176
     1
 90
        0
176
     1
 90
        0
176
     1
 40
0.6
176
     1
 40
30.0
176
     1
 62
     7
420
 16777215
176
     1
 90
        1
176
     1
 90
        4
176
     1
 62
     7
176
     1
 62
   257
176
     1
 90
        1
176
     1
 90
        1
176
     1
 40
1.0
176
     1
 90
        8
176
     1
 62
     7
176
     1
 40
1.0
176
     1
 90
        1
176
     1
 90
        6
176
     1
 90
        2
176
     1
 62
     7
176
     1
 90
        5
176
     1
 90
        0
176
     1
 90
        0
176
     1
290
     0
176
     1
 90
        1
176
     1
 40
0.0
176
     1
 90
        0
176
     1
290
     0
176
     1
290
     1
176
     1
290
     1
176
     1
290
     0
176
     1
290
     0
176
     1
290
     0
176
     1
290
     0
176
     1
290
     0
176
     1
290
     0
176
     1
 90
       50
176
     1
 40
0.0
176
     1
 40
1.0
176
     1
 90
        0
176
     1
 62
    18
420
        0
176
     1
 90
       50
176
     1
 90
        3
176
     1
 62
     5
420
      255
176
     1
290
     0
176
     1
 90
       50
176
     1
 90
       50
176
     1
 90
       50
176
     1
290
     0
176
     1
 90
       50
176
     1
 62
   256
176
     0
 40
1.0
176
     0
 90
        2
176
     1
  1
strokes_ogs.tif
176
     1
290
     0
176
     1
 40
1.0
176
     1
 40
1.0
176
     1
1001
ACAD
1000
AcDbSavedByObjectVersion
1070
     0
  0
VISUALSTYLE
  5
1001E
102
{ACAD_REACTORS
330
1001D
102
}
330
1001D
100
AcDbVisualStyle
  2
Flat
 70
     0
177
     3
291
     1
 70
    58
 90
        2
176
     1
 90
        1
176
     1
 90
        1
176
     1
 90
        2
176
     1
 40
0.6
176
     1
 40
30.0
176
     1
 62
     7
420
 16777215
176
     1
 90
        0
176
     1
 90
        0
176
     1
 62
     7
176
     1
 62
   257
176
     1
 90
        1
176
     1
 90
        1
176
     1
 40
1.0
176
     1
 90
        8
176
     1
 62
     7
176
     1
 40
1.0
176
     1
 90
        1
176
     1
 90
        6
176
     1
 90
        2
176
     1
 62
     7
176
     1
 90
        5
176
     1
 90
        0
176
     1
 90
        0
176
     1
290
     0
176
     1
 90
       13
176
     1
 40
0.0
176
     1
 90
        0
176
     1
290
     0
176
     1
290
     1
176
     1
290
     1
176
     1
290
     0
176
     1
290
     0
176
     1
290
     0
176
     1
290
     0
176
     1
290
     0
176
     1
290
     0
176
     1
 90
       50
176
     1
 40
0.0
176
     1
 40
1.0
176
     1
 90
        0
176
     1
 62
    18
420
        0
176
     1
 90
       50
176
     1
 90
        3
176
     1
 62
     5
420
      255
176
     1
290
     0
176
     1
 90
       50
176
     1
 90
       50
176
     1
 90
       50
176
     1
290
     0
176
     1
 90
       50
176
     1
 62
   256
176
     0
 40
1.0
176
     0
 90
        2
176
     1
  1
strokes_ogs.tif
176
     1
290
     0
176
     1
 40
1.0
176
     1
 40
1.0
176
     1
1001
ACAD
1000
AcDbSavedByObjectVersion
1070
     0
  0
VISUALSTYLE
  5
1001F
102
{ACAD_REACTORS
330
1001D
102
}
330
1001D
100
AcDbVisualStyle
  2
FlatWithEdges
 70
     1
177
     3
291
     1
 70
    58
 90
        2
176
     1
 90
        1
176
     1
 90
        1
176
     1
 90
        2
176
     1
 40
0.6
176
     1
 40
30.0
176
     1
 62
     7
420
 16777215
176
     1
 90
        1
176
     1
 90
        0
176
     1
 62
     7
176
     1
 62
   257
176
     1
 90
        1
176
     1
 90
        1
176
     1
 40
1.0
176
     1
 90
        0
176
     1
 62
   257
176
     1
 40
1.0
176
     1
 90
        1
176
     1
 90
        6
176
     1
 90
        2
176
     1
 62
     7
176
     1
 90
        5
176
     1
 90
        0
176
     1
 90
        0
176
     1
290
     0
176
     1
 90
       13
176
     1
 40
0.0
176
     1
 90
        0
176
     1
290
     0
176
     1
290
     1
176
     1
290
     1
176
     1
290
     0
176
     1
290
     0
176
     1
290
     0
176
     1
290
     0
176
     1
290
     0
176
     1
290
     0
176
     1
 90
       50
176
     1
 40
0.0
176
     1
 40
1.0
176
     1
 90
        0
176
     1
 62
    18
420
        0
176
     1
 90
       50
176
     1
 90
        3
176
     1
 62
     5
420
      255
176
     1
290
     0
176
     1
 90
       50
176
     1
 90
       50
176
     1
 90
       50
176
     1
290
     0
176
     1
 90
       50
176
     1
 62
   256
176
     0
 40
1.0
176
     0
 90
        2
176
     1
  1
strokes_ogs.tif
176
     1
290
     0
176
     1
 40
1.0
176
     1
 40
1.0
176
     1
1001
ACAD
1000
AcDbSavedByObjectVersion
1070
     0
  0
VISUALSTYLE
  5
10020
102
{ACAD_REACTORS
330
1001D
102
}
330
1001D
100
AcDbVisualStyle
  2
Gouraud
 70
     2
177
     3
291
     1
 70
    58
 90
        2
176
     1
 90
        2
176
     1
 90
        1
176
     1
 90
        2
176
     1
 40
0.6
176
     1
 40
30.0
176
     1
 62
     7
420
 16777215
176
     1
 90
        0
176
     1
 90
        0
176
     1
 62
     7
176
     1
 62
   257
176
     1
 90
        1
176
     1
 90
        1
176
     1
 40
1.0
176
     1
 90
        0
176
     1
 62
     7
176
     1
 40
1.0
176
     1
 90
        1
176
     1
 90
        6
176
     1
 90
        2
176
     1
 62
     7
176
     1
 90
        5
176
     1
 90
        0
176
     1
 90
        0
176
     1
290
     0
176
     1
 90
       13
176
     1
 40
0.0
176
     1
 90
        0
176
     1
290
     0
176
     1
290
     1
176
     1
290
     1
176
     1
290
     0
176
     1
290
     0
176
     1
290
     0
176
     1
290
     0
176
     1
290
     0
176
     1
290
     0
176
     1
 90
       50
176
     1
 40
0.0
176
     1
 40
1.0
176
     1
 90
        0
176
     1
 62
    18
420
        0
176
     1
 90
       50
176
     1
 90
        3
176
     1
 62
     5
420
      255
176
     1
290
     0
176
     1
 90
       50
176
     1
 90
       50
176
     1
 90
       50
176
     1
290
     0
176
     1
 90
       50
176
     1
 62
   256
176
     0
 40
1.0
176
     0
 90
        2
176
     1
  1
strokes_ogs.tif
176
     1
290
     0
176
     1
 40
1.0
176
     1
 40
1.0
176
     1
1001
ACAD
1000
AcDbSavedByObjectVersion
1070
     0
  0
VISUALSTYLE
  5
10021
102
{ACAD_REACTORS
330
1001D
102
}
330
1001D
100
AcDbVisualStyle
  2
GouraudWithEdges
 70
     3
177
     3
291
     1
 70
    58
 90
        2
176
     1
 90
        2
176
     1
 90
        1
176
     1
 90
        2
176
     1
 40
0.6
176
     1
 40
30.0
176
     1
 62
     7
420
 16777215
176
     1
 90
        1
176
     1
 90
        0
176
     1
 62
     7
176
     1
 62
   257
176
     1
 90
        1
176
     1
 90
        1
176
     1
 40
1.0
176
     1
 90
        0
176
     1
 62
   257
176
     1
 40
1.0
176
     1
 90
        1
176
     1
 90
        6
176
     1
 90
        2
176
     1
 62
     7
176
     1
 90
        5
176
     1
 90
        0
176
     1
 90
        0
176
     1
290
     0
176
     1
 90
       13
176
     1
 40
0.0
176
     1
 90
        0
176
     1
290
     0
176
     1
290
     1
176
     1
290
     1
176
     1
290
     0
176
     1
290
     0
176
     1
290
     0
176
     1
290
     0
176
     1
290
     0
176
     1
290
     0
176
     1
 90
       50
176
     1
 40
0.0
176
     1
 40
1.0
176
     1
 90
        0
176
     1
 62
    18
420
        0
176
     1
 90
       50
176
     1
 90
        3
176
     1
 62
     5
420
      255
176
     1
290
     0
176
     1
 90
       50
176
     1
 90
       50
176
     1
 90
       50
176
     1
290
     0
176
     1
 90
       50
176
     1
 62
   256
176
     0
 40
1.0
176
     0
 90
        2
176
     1
  1
strokes_ogs.tif
176
     1
290
     0
176
     1
 40
1.0
176
     1
 40
1.0
176
     1
1001
ACAD
1000
AcDbSavedByObjectVersion
1070
     0
  0
VISUALSTYLE
  5
10025
102
{ACAD_REACTORS
330
1001D
102
}
330
1001D
100
AcDbVisualStyle
  2
Hidden
 70
     6
177
     3
291
     0
 70
    58
 90
        1
176
     1
 90
        2
176
     1
 90
        2
176
     1
 90
        0
176
     1
 40
0.6
176
     1
 40
30.0
176
     1
 62
     7
420
 16777215
176
     1
 90
        2
176
     1
 90
        2
176
     1
 62
     7
176
     1
 62
   257
176
     1
 90
        2
176
     1
 90
        1
176
     1
 40
40.0
176
     1
 90
        0
176
     1
 62
   257
176
     1
 40
1.0
176
     1
 90
        1
176
     1
 90
        6
176
     1
 90
        2
176
     1
 62
     7
176
     1
 90
        3
176
     1
 90
        0
176
     1
 90
        0
176
     1
290
     0
176
     1
 90
        1
176
     1
 40
0.0
176
     1
 90
        0
176
     1
290
     0
176
     1
290
     1
176
     1
290
     1
176
     1
290
     0
176
     1
290
     0
176
     1
290
     0
176
     1
290
     0
176
     1
290
     0
176
     1
290
     0
176
     1
 90
       50
176
     1
 40
0.0
176
     1
 40
1.0
176
     1
 90
        0
176
     1
 62
    18
420
        0
176
     1
 90
       50
176
     1
 90
        3
176
     1
 62
     5
420
      255
176
     1
290
     0
176
     1
 90
       50
176
     1
 90
       50
176
     1
 90
       50
176
     1
290
     0
176
     1
 90
       50
176
     1
 62
   256
176
     0
 40
1.0
176
     0
 90
        2
176
     1
  1
strokes_ogs.tif
176
     1
290
     0
176
     1
 40
1.0
176
     1
 40
1.0
176
     1
1001
ACAD
1000
AcDbSavedByObjectVersion
1070
     0
  0
VISUALSTYLE
  5
10033
102
{ACAD_REACTORS
330
1001D
102
}
330
1001D
100
AcDbVisualStyle
  2
JitterOff
 70
    20
177
     3
291
     1
 70
    58
 90
        2
176
     0
 90
        2
176
     0
 90
        0
176
     0
 90
        0
176
     0
 40
0.6
176
     0
 40
30.0
176
     0
 62
     7
420
 16777215
176
     0
 90
        1
176
     0
 90
        4
176
     0
 62
     7
176
     0
 62
   257
176
     0
 90
        1
176
     0
 90
        1
176
     0
 40
1.0
176
     0
 90
       10
176
     2
 62
     7
176
     0
 40
1.0
176
     0
 90
        1
176
     0
 90
        6
176
     0
 90
        2
176
     0
 62
     7
176
     0
 90
        5
176
     0
 90
        0
176
     0
 90
        0
176
     0
290
     0
176
     0
 90
        1
176
     0
 40
0.0
176
     0
 90
        0
176
     0
290
     0
176
     1
290
     1
176
     1
290
     1
176
     1
290
     0
176
     1
290
     0
176
     1
290
     0
176
     1
290
     0
176
     1
290
     0
176
     1
290
     0
176
     1
 90
       50
176
     0
 40
0.0
176
     0
 40
1.0
176
     0
 90
        0
176
     0
 62
    18
420
        0
176
     0
 90
       50
176
     0
 90
        3
176
     0
 62
     5
420
      255
176
     0
290
     0
176
     1
 90
       50
176
     0
 90
       50
176
     0
 90
       50
176
     0
290
     0
176
     1
 90
       50
176
     0
 62
   256
176
     0
 40
1.0
176
     0
 90
        2
176
     0
  1
strokes_ogs.tif
176
     0
290
     0
176
     1
 40
1.0
176
     0
 40
1.0
176
     0
1001
ACAD
1000
AcDbSavedByObjectVersion
1070
     0
  0
VISUALSTYLE
  5
1002B
102
{ACAD_REACTORS
330
1001D
102
}
330
1001D
100
AcDbVisualStyle
  2
Linepattern
 70
    14
177
     3
291
     1
 70
    58
 90
        2
176
     1
 90
        2
176
     1
 90
        0
176
     1
 90
        0
176
     1
 40
0.6
176
     1
 40
30.0
176
     1
 62
     7
420
 16777215
176
     1
 90
        1
176
     1
 90
        4
176
     1
 62
     7
176
     1
 62
   257
176
     1
 90
        7
176
     1
 90
        7
176
     1
 40
1.0
176
     1
 90
        8
176
     1
 62
     7
176
     1
 40
1.0
176
     1
 90
        1
176
     1
 90
        6
176
     1
 90
        2
176
     1
 62
     7
176
     1
 90
        5
176
     1
 90
        0
176
     1
 90
        0
176
     1
290
     0
176
     1
 90
        1
176
     1
 40
0.0
176
     1
 90
        0
176
     1
290
     0
176
     1
290
     1
176
     1
290
     1
176
     1
290
     0
176
     1
290
     0
176
     1
290
     0
176
     1
290
     0
176
     1
290
     0
176
     1
290
     0
176
     1
 90
       50
176
     1
 40
0.0
176
     1
 40
1.0
176
     1
 90
        0
176
     1
 62
    18
420
        0
176
     1
 90
       50
176
     1
 90
        3
176
     1
 62
     5
420
      255
176
     1
290
     0
176
     1
 90
       50
176
     1
 90
       50
176
     1
 90
       50
176
     1
290
     0
176
     1
 90
       50
176
     1
 62
   256
176
     0
 40
1.0
176
     0
 90
        2
176
     1
  1
strokes_ogs.tif
176
     1
290
     0
176
     1
 40
1.0
176
     1
 40
1.0
176
     1
1001
ACAD
1000
AcDbSavedByObjectVersion
1070
     0
  0
VISUALSTYLE
  5
10034
102
{ACAD_REACTORS
330
1001D
102
}
330
1001D
100
AcDbVisualStyle
  2
OverhangOff
 70
    21
177
     3
291
     1
 70
    58
 90
        2
176
     0
 90
        2
176
     0
 90
        0
176
     0
 90
        0
176
     0
 40
0.6
176
     0
 40
30.0
176
     0
 62
     7
420
 16777215
176
     0
 90
        1
176
     0
 90
        4
176
     0
 62
     7
176
     0
 62
   257
176
     0
 90
        1
176
     0
 90
        1
176
     0
 40
1.0
176
     0
 90
        9
176
     2
 62
     7
176
     0
 40
1.0
176
     0
 90
        1
176
     0
 90
        6
176
     0
 90
        2
176
     0
 62
     7
176
     0
 90
        5
176
     0
 90
        0
176
     0
 90
        0
176
     0
290
     0
176
     0
 90
        1
176
     0
 40
0.0
176
     0
 90
        0
176
     0
290
     0
176
     1
290
     1
176
     1
290
     1
176
     1
290
     0
176
     1
290
     0
176
     1
290
     0
176
     1
290
     0
176
     1
290
     0
176
     1
290
     0
176
     1
 90
       50
176
     0
 40
0.0
176
     0
 40
1.0
176
     0
 90
        0
176
     0
 62
    18
420
        0
176
     0
 90
       50
176
     0
 90
        3
176
     0
 62
     5
420
      255
176
     0
290
     0
176
     1
 90
       50
176
     0
 90
       50
176
     0
 90
       50
176
     0
290
     0
176
     1
 90
       50
176
     0
 62
   256
176
     0
 40
1.0
176
     0
 90
        2
176
     0
  1
strokes_ogs.tif
176
     0
290
     0
176
     1
 40
1.0
176
     0
 40
1.0
176
     0
1001
ACAD
1000
AcDbSavedByObjectVersion
1070
     0
  0
VISUALSTYLE
  5
10027
102
{ACAD_REACTORS
330
1001D
102
}
330
1001D
100
AcDbVisualStyle
  2
Realistic
 70
     8
177
     3
291
     0
 70
    58
 90
        2
176
     1
 90
        3
176
     1
 90
        0
176
     1
 90
        2
176
     1
 40
0.6
176
     1
 40
30.0
176
     1
 62
     7
420
 16777215
176
     1
 90
        0
176
     1
 90
        0
176
     1
 62
     7
176
     1
 62
   257
176
     1
 90
        1
176
     1
 90
        1
176
     1
 40
1.0
176
     1
 90
        8
176
     1
 62
   257
176
     1
 40
1.0
176
     1
 90
        1
176
     1
 90
        6
176
     1
 90
        2
176
     1
 62
     7
176
     1
 90
        3
176
     1
 90
        0
176
     1
 90
        0
176
     1
290
     0
176
     1
 90
       13
176
     1
 40
0.0
176
     1
 90
        0
176
     1
290
     0
176
     1
290
     1
176
     1
290
     1
176
     1
290
     0
176
     1
290
     0
176
     1
290
     0
176
     1
290
     0
176
     1
290
     0
176
     1
290
     0
176
     1
 90
       50
176
     1
 40
0.0
176
     1
 40
1.0
176
     1
 90
        0
176
     1
 62
    18
420
        0
176
     1
 90
       50
176
     1
 90
        3
176
     1
 62
     5
420
      255
176
     1
290
     0
176
     1
 90
       50
176
     1
 90
       50
176
     1
 90
       50
176
     1
290
     0
176
     1
 90
       50
176
     1
 62
   256
176
     0
 40
1.0
176
     0
 90
        2
176
     1
  1
strokes_ogs.tif
176
     1
290
     0
176
     1
 40
1.0
176
     1
 40
1.0
176
     1
1001
ACAD
1000
AcDbSavedByObjectVersion
1070
     0
  0
VISUALSTYLE
  5
10032
102
{ACAD_REACTORS
330
1001D
102
}
330
1001D
100
AcDbVisualStyle
  2
Shaded
 70
    27
177
     3
291
     0
 70
    58
 90
        2
176
     1
 90
        2
176
     1
 90
        1
176
     1
 90
        2
176
     1
 40
0.6
176
     1
 40
30.0
176
     1
 62
     7
420
 16777215
176
     1
 90
        0
176
     1
 90
        4
176
     1
 62
     7
176
     1
 62
   257
176
     1
 90
        1
176
     1
 90
        1
176
     1
 40
1.0
176
     1
 90
        8
176
     1
 62
   257
176
     1
 40
1.0
176
     1
 90
        1
176
     1
 90
        6
176
     1
 90
        2
176
     1
 62
     8
420
  7895160
176
     1
 90
        3
176
     1
 90
        0
176
     1
 90
        0
176
     1
290
     0
176
     1
 90
        5
176
     1
 40
0.0
176
     1
 90
        0
176
     1
290
     0
176
     1
290
     1
176
     1
290
     1
176
     1
290
     0
176
     1
290
     0
176
     1
290
     0
176
     1
290
     0
176
     1
290
     0
176
     1
290
     0
176
     1
 90
       50
176
     1
 40
0.0
176
     1
 40
1.0
176
     1
 90
        0
176
     1
 62
    18
420
        0
176
     1
 90
       50
176
     1
 90
        3
176
     1
 62
     5
420
      255
176
     1
290
     0
176
     1
 90
       50
176
     1
 90
       50
176
     1
 90
       50
176
     1
290
     0
176
     1
 90
       50
176
     1
 62
   256
176
     0
 40
1.0
176
     0
 90
        2
176
     1
  1
strokes_ogs.tif
176
     1
290
     0
176
     1
 40
1.0
176
     1
 40
1.0
176
     1
1001
ACAD
1000
AcDbSavedByObjectVersion
1070
     0
  0
VISUALSTYLE
  5
10031
102
{ACAD_REACTORS
330
1001D
102
}
330
1001D
100
AcDbVisualStyle
  2
Shaded with edges
 70
    26
177
     3
291
     0
 70
    58
 90
        2
176
     1
 90
        2
176
     1
 90
        1
176
     1
 90
        2
176
     1
 40
0.6
176
     1
 40
30.0
176
     1
 62
     7
420
 16777215
176
     1
 90
        1
176
     1
 90
        2
176
     1
 62
     7
176
     1
 62
   257
176
     1
 90
        2
176
     1
 90
        1
176
     1
 40
1.0
176
     1
 90
        8
176
     1
 62
   257
176
     1
 40
1.0
176
     1
 90
        1
176
     1
 90
        6
176
     1
 90
        2
176
     1
 62
     7
176
     1
 90
        3
176
     1
 90
        0
176
     1
 90
        0
176
     1
290
     0
176
     1
 90
        5
176
     1
 40
0.0
176
     1
 90
        0
176
     1
290
     0
176
     1
290
     1
176
     1
290
     1
176
     1
290
     0
176
     1
290
     0
176
     1
290
     0
176
     1
290
     0
176
     1
290
     0
176
     1
290
     0
176
     1
 90
       50
176
     1
 40
0.0
176
     1
 40
1.0
176
     1
 90
        0
176
     1
 62
    18
420
        0
176
     1
 90
       50
176
     1
 90
        3
176
     1
 62
     5
420
      255
176
     1
290
     0
176
     1
 90
       50
176
     1
 90
       50
176
     1
 90
       50
176
     1
290
     0
176
     1
 90
       50
176
     1
 62
   256
176
     0
 40
1.0
176
     0
 90
        2
176
     1
  1
strokes_ogs.tif
176
     1
290
     0
176
     1
 40
1.0
176
     1
 40
1.0
176
     1
1001
ACAD
1000
AcDbSavedByObjectVersion
1070
     0
  0
VISUALSTYLE
  5
1002E
102
{ACAD_REACTORS
330
1001D
102
}
330
1001D
100
AcDbVisualStyle
  2
Shades of Gray
 70
    23
177
     3
291
     0
 70
    58
 90
        2
176
     1
 90
        2
176
     1
 90
        3
176
     1
 90
        0
176
     1
 40
0.6
176
     1
 40
30.0
176
     1
 62
     7
420
 16777215
176
     1
 90
        2
176
     1
 90
        2
176
     1
 62
     7
176
     1
 62
     7
176
     1
 90
        1
176
     1
 90
        1
176
     1
 40
40.0
176
     1
 90
        8
176
     1
 62
     7
176
     1
 40
1.0
176
     1
 90
        1
176
     1
 90
        6
176
     1
 90
        2
176
     1
 62
     7
176
     1
 90
        3
176
     1
 90
        0
176
     1
 90
        0
176
     1
290
     0
176
     1
 90
        1
176
     1
 40
0.0
176
     1
 90
        0
176
     1
290
     0
176
     1
290
     1
176
     1
290
     1
176
     1
290
     0
176
     1
290
     0
176
     1
290
     0
176
     1
290
     0
176
     1
290
     0
176
     1
290
     0
176
     1
 90
       50
176
     1
 40
0.0
176
     1
 40
1.0
176
     1
 90
        0
176
     1
 62
    18
420
        0
176
     1
 90
       50
176
     1
 90
        3
176
     1
 62
     5
420
      255
176
     1
290
     0
176
     1
 90
       50
176
     1
 90
       50
176
     1
 90
       50
176
     1
290
     0
176
     1
 90
       50
176
     1
 62
   256
176
     0
 40
1.0
176
     0
 90
        2
176
     1
  1
strokes_ogs.tif
176
     1
290
     0
176
     1
 40
1.0
176
     1
 40
1.0
176
     1
1001
ACAD
1000
AcDbSavedByObjectVersion
1070
     0
  0
VISUALSTYLE
  5
1002F
102
{ACAD_REACTORS
330
1001D
102
}
330
1001D
100
AcDbVisualStyle
  2
Sketchy
 70
    24
177
     3
291
     0
 70
    58
 90
        1
176
     1
 90
        2
176
     1
 90
        2
176
     1
 90
        0
176
     1
 40
0.6
176
     1
 40
30.0
176
     1
 62
     7
420
 16777215
176
     1
 90
        2
176
     1
 90
        2
176
     1
 62
     7
176
     1
 62
     7
176
     1
 90
        1
176
     1
 90
        1
176
     1
 40
40.0
176
     1
 90
       11
176
     1
 62
     7
176
     1
 40
1.0
176
     1
 90
        1
176
     1
 90
        6
176
     1
 90
        2
176
     1
 62
     7
176
     1
 90
        6
176
     1
 90
        0
176
     1
 90
        0
176
     1
290
     0
176
     1
 90
        1
176
     1
 40
0.0
176
     1
 90
        0
176
     1
290
     0
176
     1
290
     1
176
     1
290
     1
176
     1
290
     0
176
     1
290
     0
176
     1
290
     0
176
     1
290
     0
176
     1
290
     0
176
     1
290
     0
176
     1
 90
       50
176
     1
 40
0.0
176
     1
 40
1.0
176
     1
 90
        0
176
     1
 62
    18
420
        0
176
     1
 90
       50
176
     1
 90
        3
176
     1
 62
     5
420
      255
176
     1
290
     0
176
     1
 90
       50
176
     1
 90
       50
176
     1
 90
       50
176
     1
290
     0
176
     1
 90
       50
176
     1
 62
   256
176
     0
 40
1.0
176
     0
 90
        2
176
     1
  1
strokes_ogs.tif
176
     1
290
     0
176
     1
 40
1.0
176
     1
 40
1.0
176
     1
1001
ACAD
1000
AcDbSavedByObjectVersion
1070
     0
  0
VISUALSTYLE
  5
1002A
102
{ACAD_REACTORS
330
1001D
102
}
330
1001D
100
AcDbVisualStyle
  2
Thicken
 70
    13
177
     3
291
     1
 70
    58
 90
        2
176
     1
 90
        2
176
     1
 90
        0
176
     1
 90
        0
176
     1
 40
0.6
176
     1
 40
30.0
176
     1
 62
     7
420
 16777215
176
     1
 90
        1
176
     1
 90
        4
176
     1
 62
     7
176
     1
 62
   257
176
     1
 90
        1
176
     1
 90
        1
176
     1
 40
1.0
176
     1
 90
       12
176
     1
 62
     7
176
     1
 40
1.0
176
     1
 90
        1
176
     1
 90
        6
176
     1
 90
        2
176
     1
 62
     7
176
     1
 90
        5
176
     1
 90
        0
176
     1
 90
        0
176
     1
290
     0
176
     1
 90
        1
176
     1
 40
0.0
176
     1
 90
        0
176
     1
290
     0
176
     1
290
     1
176
     1
290
     1
176
     1
290
     0
176
     1
290
     0
176
     1
290
     0
176
     1
290
     0
176
     1
290
     0
176
     1
290
     0
176
     1
 90
       50
176
     1
 40
0.0
176
     1
 40
1.0
176
     1
 90
        0
176
     1
 62
    18
420
        0
176
     1
 90
       50
176
     1
 90
        3
176
     1
 62
     5
420
      255
176
     1
290
     0
176
     1
 90
       50
176
     1
 90
       50
176
     1
 90
       50
176
     1
290
     0
176
     1
 90
       50
176
     1
 62
   256
176
     0
 40
1.0
176
     0
 90
        2
176
     1
  1
strokes_ogs.tif
176
     1
290
     0
176
     1
 40
1.0
176
     1
 40
1.0
176
     1
1001
ACAD
1000
AcDbSavedByObjectVersion
1070
     0
  0
VISUALSTYLE
  5
10024
102
{ACAD_REACTORS
330
1001D
102
}
330
1001D
100
AcDbVisualStyle
  2
Wireframe
 70
     5
177
     3
291
     0
 70
    58
 90
        0
176
     1
 90
        2
176
     1
 90
        0
176
     1
 90
        0
176
     1
 40
0.6
176
     1
 40
30.0
176
     1
 62
     7
420
 16777215
176
     1
 90
        1
176
     1
 90
        4
176
     1
 62
     7
176
     1
 62
   257
176
     1
 90
        1
176
     1
 90
        1
176
     1
 40
1.0
176
     1
 90
        0
176
     1
 62
   257
176
     1
 40
1.0
176
     1
 90
        1
176
     1
 90
        6
176
     1
 90
        2
176
     1
 62
     7
176
     1
 90
        3
176
     1
 90
        0
176
     1
 90
        0
176
     1
290
     0
176
     1
 90
        1
176
     1
 40
0.0
176
     1
 90
        0
176
     1
290
     0
176
     1
290
     1
176
     1
290
     1
176
     1
290
     0
176
     1
290
     0
176
     1
290
     0
176
     1
290
     0
176
     1
290
     0
176
     1
290
     0
176
     1
 90
       50
176
     1
 40
0.0
176
     1
 40
1.0
176
     1
 90
        0
176
     1
 62
    18
420
        0
176
     1
 90
       50
176
     1
 90
        3
176
     1
 62
     5
420
      255
176
     1
290
     0
176
     1
 90
       50
176
     1
 90
       50
176
     1
 90
       50
176
     1
290
     0
176
     1
 90
       50
176
     1
 62
   256
176
     0
 40
1.0
176
     0
 90
        2
176
     1
  1
strokes_ogs.tif
176
     1
290
     0
176
     1
 40
1.0
176
     1
 40
1.0
176
     1
1001
ACAD
1000
AcDbSavedByObjectVersion
1070
     0
  0
VISUALSTYLE
  5
10030
102
{ACAD_REACTORS
330
1001D
102
}
330
1001D
100
AcDbVisualStyle
  2
X-Ray
 70
    25
177
     3
291
     0
 70
    58
 90
        2
176
     1
 90
        2
176
     1
 90
        1
176
     1
 90
        1
176
     1
 40
0.5
176
     1
 40
30.0
176
     1
 62
     7
420
 16777215
176
     1
 90
        1
176
     1
 90
        0
176
     1
 62
     7
176
     1
 62
   257
176
     1
 90
        1
176
     1
 90
        1
176
     1
 40
1.0
176
     1
 90
        8
176
     1
 62
     7
176
     1
 40
1.0
176
     1
 90
        1
176
     1
 90
        6
176
     1
 90
        2
176
     1
 62
     7
176
     1
 90
        3
176
     1
 90
        0
176
     1
 90
        0
176
     1
290
     0
176
     1
 90
       13
176
     1
 40
0.0
176
     1
 90
        0
176
     1
290
     0
176
     1
290
     1
176
     1
290
     1
176
     1
290
     0
176
     1
290
     0
176
     1
290
     0
176
     1
290
     0
176
     1
290
     0
176
     1
290
     0
176
     1
 90
       50
176
     1
 40
0.0
176
     1
 40
1.0
176
     1
 90
        0
176
     1
 62
    18
420
        0
176
     1
 90
       50
176
     1
 90
        3
176
     1
 62
     5
420
      255
176
     1
290
     0
176
     1
 90
       50
176
     1
 90
       50
176
     1
 90
       50
176
     1
290
     0
176
     1
 90
       50
176
     1
 62
   256
176
     0
 40
1.0
176
     0
 90
        2
176
     1
  1
strokes_ogs.tif
176
     1
290
     0
176
     1
 40
1.0
176
     1
 40
1.0
176
     1
1001
ACAD
1000
AcDbSavedByObjectVersion
1070
     0
  0
DICTIONARYVAR
  5
100E2
102
{ACAD_REACTORS
330
100DC
102
}
330
100DC
100
DictionaryVariables
280
     0
  1
1:1
  0
DICTIONARYVAR
  5
100DE
102
{ACAD_REACTORS
330
100DC
102
}
330
100DC
100
DictionaryVariables
280
     0
  1
STANDARD
  0
DICTIONARYVAR
  5
100DD
102
{ACAD_REACTORS
330
100DC
102
}
330
100DC
100
DictionaryVariables
280
     0
  1
STANDARD
  0
DICTIONARYVAR
  5
100DF
102
{ACAD_REACTORS
330
100DC
102
}
330
100DC
100
DictionaryVariables
280
     0
  1
Imperial24
  0
DICTIONARYVAR
  5
100E0
102
{ACAD_REACTORS
330
100DC
102
}
330
100DC
100
DictionaryVariables
280
     0
  1
Imperial24
  0
DICTIONARYVAR
  5
100E4
102
{ACAD_REACTORS
330
100DC
102
}
330
100DC
100
DictionaryVariables
280
     0
  1
1
  0
DICTIONARYVAR
  5
100E5
102
{ACAD_REACTORS
330
100DC
102
}
330
100DC
100
DictionaryVariables
280
     0
  1
15
  0
DICTIONARYVAR
  5
100E3
102
{ACAD_REACTORS
330
100DC
102
}
330
100DC
100
DictionaryVariables
280
     0
  1
0
  0
DICTIONARYVAR
  5
100E1
102
{ACAD_REACTORS
330
100DC
102
}
330
100DC
100
DictionaryVariables
280
     0
  1
0
  0
DICTIONARY
  5
100EE
330
10052
100
AcDbDictionary
280
     1
281
     1
  3
ACAD_XREC_ROUNDTRIP
360
100EF
  0
DICTIONARY
  5
1000E
330
1000D
100
AcDbDictionary
280
     1
281
     1
  3
BUMPTILE
360
10010
  3
DIFFUSETILE
360
1000F
  3
OPACITYTILE
360
10013
  3
REFLECTIONTILE
360
10012
  3
REFRACTIONTILE
360
10014
  3
SPECULARTILE
360
10011
  0
DICTIONARY
  5
10006
330
10005
100
AcDbDictionary
280
     1
281
     1
  3
BUMPTILE
360
10008
  3
DIFFUSETILE
360
10007
  3
OPACITYTILE
360
1000B
  3
REFLECTIONTILE
360
1000A
  3
REFRACTIONTILE
360
1000C
  3
SPECULARTILE
360
10009
  0
DICTIONARY
  5
10016
330
10015
100
AcDbDictionary
280
     1
281
     1
  3
BUMPTILE
360
10018
  3
DIFFUSETILE
360
10017
  3
OPACITYTILE
360
1001B
  3
REFLECTIONTILE
360
1001A
  3
REFRACTIONTILE
360
1001C
  3
SPECULARTILE
360
10019
  0
DICTIONARY
  5
100EC
330
10050
100
AcDbDictionary
280
     1
281
     1
  3
ACAD_XREC_ROUNDTRIP
360
100ED
  0
DICTIONARY
  5
100E9
330
10039
100
AcDbDictionary
280
     1
281
     1
  3
ACAD_ROUNDTRIP_2008_TABLESTYLE_CELLSTYLEMAP
360
100EA
  0
XRECORD
  5
100EF
102
{ACAD_REACTORS
330
100EE
102
}
330
100EE
100
AcDbXrecord
280
     1
102
DISPLAYNAME
  1
Imperial24
102
FLAGS
 90
        0
  0
XRECORD
  5
10010
102
{ACAD_REACTORS
330
1000E
102
}
330
1000E
100
AcDbXrecord
280
     1
270
     1
271
     1
  0
XRECORD
  5
1000F
102
{ACAD_REACTORS
330
1000E
102
}
330
1000E
100
AcDbXrecord
280
     1
270
     1
271
     1
  0
XRECORD
  5
10013
102
{ACAD_REACTORS
330
1000E
102
}
330
1000E
100
AcDbXrecord
280
     1
270
     1
271
     1
  0
XRECORD
  5
10012
102
{ACAD_REACTORS
330
1000E
102
}
330
1000E
100
AcDbXrecord
280
     1
270
     1
271
     1
  0
XRECORD
  5
10014
102
{ACAD_REACTORS
330
1000E
102
}
330
1000E
100
AcDbXrecord
280
     1
270
     1
271
     1
  0
XRECORD
  5
10011
102
{ACAD_REACTORS
330
1000E
102
}
330
1000E
100
AcDbXrecord
280
     1
270
     1
271
     1
  0
XRECORD
  5
10008
102
{ACAD_REACTORS
330
10006
102
}
330
10006
100
AcDbXrecord
280
     1
270
     1
271
     1
  0
XRECORD
  5
10007
102
{ACAD_REACTORS
330
10006
102
}
330
10006
100
AcDbXrecord
280
     1
270
     1
271
     1
  0
XRECORD
  5
1000B
102
{ACAD_REACTORS
330
10006
102
}
330
10006
100
AcDbXrecord
280
     1
270
     1
271
     1
  0
XRECORD
  5
1000A
102
{ACAD_REACTORS
330
10006
102
}
330
10006
100
AcDbXrecord
280
     1
270
     1
271
     1
  0
XRECORD
  5
1000C
102
{ACAD_REACTORS
330
10006
102
}
330
10006
100
AcDbXrecord
280
     1
270
     1
271
     1
  0
XRECORD
  5
10009
102
{ACAD_REACTORS
330
10006
102
}
330
10006
100
AcDbXrecord
280
     1
270
     1
271
     1
  0
XRECORD
  5
10018
102
{ACAD_REACTORS
330
10016
102
}
330
10016
100
AcDbXrecord
280
     1
270
     1
271
     1
  0
XRECORD
  5
10017
102
{ACAD_REACTORS
330
10016
102
}
330
10016
100
AcDbXrecord
280
     1
270
     1
271
     1
  0
XRECORD
  5
1001B
102
{ACAD_REACTORS
330
10016
102
}
330
10016
100
AcDbXrecord
280
     1
270
     1
271
     1
  0
XRECORD
  5
1001A
102
{ACAD_REACTORS
330
10016
102
}
330
10016
100
AcDbXrecord
280
     1
270
     1
271
     1
  0
XRECORD
  5
1001C
102
{ACAD_REACTORS
330
10016
102
}
330
10016
100
AcDbXrecord
280
     1
270
     1
271
     1
  0
XRECORD
  5
10019
102
{ACAD_REACTORS
330
10016
102
}
330
10016
100
AcDbXrecord
280
     1
270
     1
271
     1
  0
XRECORD
  5
100ED
102
{ACAD_REACTORS
330
100EC
102
}
330
100EC
100
AcDbXrecord
280
     1
102
DISPLAYNAME
  1
Imperial24
102
FLAGS
 90
        0
  0
CELLSTYLEMAP
  5
100EA
102
{ACAD_REACTORS
330
100E9
102
}
330
100E9
100
AcDbCellStyleMap
 90
        3
300
CELLSTYLE
  1
TABLEFORMAT_BEGIN
 90
        5
170
     1
 91
        0
 92
    32768
 62
   257
 93
        1
300
CONTENTFORMAT
  1
CONTENTFORMAT_BEGIN
 90
        0
 91
        0
 92
      512
 93
        0
300

 40
0.0
140
1.0
 94
        5
 62
     0
340
11
144
0.25
309
CONTENTFORMAT_END
171
     0
 94
        0
309
TABLEFORMAT_END
  1
CELLSTYLE_BEGIN
 90
        1
 91
        1
300
_TITLE
309
CELLSTYLE_END
300
CELLSTYLE
  1
TABLEFORMAT_BEGIN
 90
        5
170
     1
 91
        0
 92
        0
 62
   257
 93
        1
300
CONTENTFORMAT
  1
CONTENTFORMAT_BEGIN
 90
        0
 91
        0
 92
      512
 93
        0
300

 40
0.0
140
1.0
 94
        5
 62
     0
340
11
144
0.18
309
CONTENTFORMAT_END
171
     0
 94
        0
309
TABLEFORMAT_END
  1
CELLSTYLE_BEGIN
 90
        2
 91
        1
300
_HEADER
309
CELLSTYLE_END
300
CELLSTYLE
  1
TABLEFORMAT_BEGIN
 90
        5
170
     1
 91
        0
 92
        0
 62
   257
 93
        1
300
CONTENTFORMAT
  1
CONTENTFORMAT_BEGIN
 90
        0
 91
        0
 92
      512
 93
        0
300

 40
0.0
140
1.0
 94
        2
 62
     0
340
11
144
0.18
309
CONTENTFORMAT_END
171
     0
 94
        0
309
TABLEFORMAT_END
  1
CELLSTYLE_BEGIN
 90
        3
 91
        2
300
_DATA
309
CELLSTYLE_END
  0
ENDSEC
  0
EOF
